<?xml version="1.0" standalone="yes"?>
<svg xmlns="http://www.w3.org/2000/svg" width="800" height="800">
<path style="fill:#000000; stroke:none;" d="M565 60L551 60L545 60L540 60L539 60L538 60L529 60L521 60L474 60L462 60L368 60L367.556 61.5L367.333 62.0555L366.667 64L365.972 66L365.611 67L364.75 69L364.25 70L363.389 72L362.694 74L362.417 75L362.222 76L362.083 77L362 79L362 81L362 83L362 86L362 87L362 95L362 96L362 98L362 99L362 105L362 113L362 121L362 132L362 133L362 134L362 144L362 152L362 157L362 160L362 164L362 169L362 176L362 201L362 202L362 203L362 212L362 222L362 247L362 248L362 254L362 259L362 269L362 285L362 287L362 351L360.5 350.222L359.944 349.694L358.944 348.889L358 347.972L356 346.028L355 345.083L353 343.389L352 342.611L350 341L349 340.194L347 338.694L345 337.306L344 336.611L343 335.861L342.028 335.139L340.222 333.611L338.639 331.917L337.861 330.972L337.139 330L335.694 328L335 327L333.667 325L332.417 323L331.889 322.028L330.944 320.222L330 318.611L329.056 316.917L328.639 315.972L327.722 314L326.611 312L326 311L324.889 309L324.417 308L323.667 306L323.333 305L322.611 303L322.194 302L321.806 301L321.028 299L320.389 297L320.139 296L319.861 295L319.639 294L319.361 293L319.139 292L318.611 290L318.306 289L318 288L317.333 286L317 285.056L316.667 284.056L316.444 283.5L316 282L317.5 281.472L319.028 280.5L320.778 278.917L322.389 277L324.056 275L324.944 274L326.583 272L327.306 271L328.667 269L329.333 268L330.667 266L331.972 264L332.611 263L333.75 261L334.222 260L334.778 259L335.222 258L335.778 257L336.75 255L337.167 254L337.611 253L338.389 251L339.194 249L339.611 248L340.306 246L340.861 244L341.167 243L341.444 242L342.167 240L342.528 239L343 237L343.389 235L343.778 233L343.972 231L344.028 229L344.083 228L344.389 226L344.778 224L344.917 223L345 221L345 220L344.972 218L344.917 217L344.5 215.083L343.5 213.5L341.917 212.528L340.972 212.361L340 212.417L338.083 213.333L336.389 215.028L335.611 216L334.806 217L333.194 219L332.389 220L331.611 221L329.917 222.972L328.056 224.694L327.5 225.222L326 226L326 215L326 212L326 211L325.972 209L325.917 208L325.611 206L325.222 204L325.083 203L324.972 201L324.917 200L324.778 199L324.389 197L324.056 195L323.944 194L323.611 192L323.222 190L323.083 189L322.972 187L322.917 186L322.611 184L322.222 182L322.056 181L321.944 180L321.611 178L321.361 177L320.861 175L320.639 174L320.361 173L319.861 171L319.611 170L319.306 169L318.667 167.056L318.444 166.5L318 165L316.5 165L314.944 165.111L314.028 165.333L313.083 165.722L311.472 167.111L310.861 168.028L309.778 170L309.222 171L308.778 172L308.222 173L307.75 174L306.611 176L305.389 178L304.25 180L303.75 181L302.611 183L301.972 184L300.611 186L299.861 187L299.139 188L297.611 190L296 192L294.389 194L293.611 195L291.917 197L290.972 198L289 199.917L287 201.583L285 203L283 204.306L282 204.917L280 205.944L279 206.361L277 207.167L276 207.528L275 207.778L273 208.194L271 208.611L269 208.917L267 209L265 209L264 209L262 208.917L261 208.778L260 208.611L258 208.222L257 208.083L255 207.917L253 207.583L252 207.306L250 206.611L249 206.194L248 205.833L247 205.444L245 204.861L244 204.639L243 204.361L242 204.139L241 203.861L240 203.611L238 203L236 202.333L234 201.667L232 200.917L231 200.472L229 199.611L228 199.278L226 198.778L225 198.528L223 197.833L222 197.444L220 196.861L219 196.639L217 196.139L216 195.861L215 195.639L214 195.361L213 195.139L212 194.861L210 194.389L209 194.194L207 193.806L205 193.389L204 193.222L203 193.083L201 192.917L200 192.778L198 192.389L196 192.083L195 192.028L194 192L192 192L185 192L182 192L180 192L178 192.028L177 192.083L175 192.389L174 192.611L172 192.917L170 193.083L168 193.389L167 193.639L166 193.861L164 194.444L162 195.167L161 195.556L160 195.833L159 196.139L158 196.389L156 197.083L154 198.056L153 198.639L152 199.167L151 199.75L149 200.778L148 201.25L147 201.833L146 202.389L144 203.611L142 204.833L141 205.472L139 207.056L138 207.944L137 208.778L136 209.611L135 210.389L133 212.083L132 213.028L131 214L129.083 216L127.389 218L126.611 219L125 221L123.417 223L122 225L120.667 227L119.333 229L118.028 231L117.389 232L116.25 234L115.778 235L114.778 237L114.222 238L113.25 240L112.833 241L112.389 242L111.611 244L110.806 246L110.389 247L109.667 249L109.333 250L108.611 252L108.194 253L107.472 255L107.25 256L107.083 257L107 258.944L107 261L106 262L103.944 262L102 262.083L101 262.222L100 262.417L98 263L97 263.333L95 264.028L94 264.389L92 265.278L91 265.861L90 266.444L89.0278 267.167L88.0833 267.861L86.3889 269.389L85.6111 270.222L84 272.028L82.4167 274L81.7222 275L81.0833 276L80.0556 278L79.6389 279L79.1944 280L78.4444 282L78.1667 283L77.6389 285L77.3611 286L77.1389 287L76.8611 288L76.3889 290L76.2222 291L76.0833 292L75.9722 294L75.9167 295L75.6111 297L75.3889 298L75.0833 300L75.0278 301L75 303L75 304L75 306L74.9722 308L74.9167 309L74.5833 311L74 313L73.6944 314L73.3889 315L73.1389 316L72.5278 318L71.5 320L70.75 321L68.9722 323L67 324.917L66 325.778L65 326.583L63 327.972L62 328.583L60 329.583L59 329.972L57 330.611L56 330.861L54 331.361L53 331.611L51 331.833L49 331.611L48 331.361L46 330.833L45 330.528L43 329.583L42 328.972L40 327.583L38.0833 325.917L37.2222 324.972L35.6111 323.028L34.7778 322.111L32.9722 320.722L31.0556 320.111L29.5 320L28 320L27 321L27 323.056L27 324.056L27.0278 325L27.1111 326L27.3056 327L28.0278 329L28.9444 331L29.3889 332L29.8889 333L31.0278 335L32.4167 337L34.0833 339L36 341L38 342.917L39 343.75L40 344.528L41 345.139L42 345.722L44 346.611L46 347.389L48 348.167L49 348.556L50 348.833L51 349.139L53 349.611L54 349.778L55 349.944L57 350.222L59 350.611L61 350.917L62 350.972L64 351L66 351L68 351L69 350.972L70 350.917L72 350.611L73 350.389L75 350.083L75.9444 350.028L76.9444 350L79 350L78.4167 352.056L78 354L77.5833 356L77.3056 357L76.6667 359L75.9167 361L75.4722 362L74.5278 364L74.0556 365L73.6389 366L72.7222 368L71.5278 370L70.7778 371L69.1944 372.972L67.6111 374.778L66.7778 375.611L65.9167 376.389L64 378L63 378.778L62 379.528L60 380.75L59 381.222L58 381.778L57 382.222L56 382.75L54 383.556L53 383.833L52 384.139L50.0556 384.667L49.0556 385.028L48.5 385.194L47 386L47 392L48 393L50.0556 393L52 392.972L53 392.917L55 392.611L56 392.389L58 392.083L59 392.028L61 391.972L62 391.917L64 391.611L65 391.389L67 391L69 390.583L71 390L73 389.389L75 388.833L76 388.556L78 387.75L79 387.222L81 386.222L82 385.75L83 385.167L84 384.611L85.9444 383.389L86.5 383.056L88 382L88.6111 384.056L89.1389 386L89.3889 387L90.0278 389L90.8056 391L91.1667 392L91.5556 393L92.1389 395L92.3889 396L92.6944 397L93.3056 399L93.6111 400L94.1389 402L94.3889 403C94.6841 404.012 95.0187 405.013 95.3889 406L95.8056 407L96.5556 409L96.8333 410L97.1389 411L97.7222 413L98.0833 414L98.9722 416L99.4167 417L100.139 419L100.444 420L101.167 422L101.556 423L102.167 425L102.444 426L103.194 428L103.611 429L104.333 431L104.667 432L105.389 434L105.806 435L106.611 437L107.333 439L107.667 440L108.333 442L108.667 443L109.389 445L109.806 446L110.611 448L110.972 449L111.694 451L112.083 452L113 454L113.944 456L114.806 458L115.194 459L115.611 460L116.389 462L117.194 464L117.611 465L118.389 467L119.194 469L119.611 470L120.417 472L121.5 473.972L123.083 475.667L124.028 476.278L125 476.667L127 476.972L129 476.972L130 476.917L132 476.611L134 476.222L135 476.083L137 476L138 476L140 476L142 475.972L143 475.917L145 475.611L146 475.389L148 475.083L149 475.028L151 475L152 474.972L153 474.917L155 474.611L156 474.389L158 474.083L159 474.028L161 474L163 474L164 474L165 473.972L166 473.917L168 473.611L169 473.389L171 473.083L172 473.028L174 473L175 473L180 473L182 473L183 472.972L184 472.917L186 472.611L187 472.389L189 472.083L190 472.028L192 472L193 472L199 472L201 472L203 471.972L204 471.917L206 471.611L207 471.389L208.944 471.083L209.944 471.028L212 471L212.972 469.5L213.556 467.944L213.917 466L214.083 464L214.417 462L214.694 461L215.389 459L215.806 458L216.167 457L216.556 456L216.833 455L217.139 454L217.694 452L218.389 450L219.278 448L220.389 446L221.028 445L221.667 444L223 442L224.306 440L225.333 438L225.583 437L225.556 436L224.667 434.111L223.889 433.333L222.972 432.722L222.056 432.333L221.056 432.111L219 432L220.5 431.25L221.056 431.167L223 430.528L225 429.611L227 428.528L229 427.472L230 426.917L231 426.306L232.944 425.056L233.944 424.389L234.5 424.056L236 423L235.889 420.944L235.667 419.972L234.667 418.333L233.889 417.722L232.972 417.333L232 417.139L230 417.333L229 417.694L227 418.861L226 419.556L224 420.75L223 421.222L222 421.778L221 422.222L220 422.75L218 423.528L217 423.778L216 424L214 424.389L213 424.611L211 424.889L209 424.778L208 424.583L207 424.306L205 423.583L204 423.083L203 422.5L201.083 420.917L199.417 419L198.028 417L197.417 416L196.417 414L196.028 413L195.389 411L195.139 410L194.639 408L194.389 407L194.083 405L193.972 403L193.917 402L193.611 400L193.389 399L193.083 397L193.028 396L192.917 394L192.778 393L192.611 392L192.222 390L192.083 389L191.917 387L191.611 385L191.389 384L191.083 382L191.028 381L191 380L191 378L191.083 376L191.25 375L191.472 374L191.861 373L192.278 372L193.472 370L195.083 368.028L197 366.222L198 365.417L200 364.083L202 363.083L204 362.5L206 362.5L208 363.111L210 364.306L211 365.111L211.972 366.028L212.917 367L214.528 369L215.75 370.972L216.25 371.917L217.472 373.5L219.083 374.472L220.972 374.583L222.667 373.667L223.667 371.972L223.889 370L223.611 368.056L223.25 366.5L223 365L225.056 365.583L226.944 365.917L227.944 365.972L230 366L230.972 364.5L231.139 363.944L231.556 362.944L231.806 361L231.306 359L230.139 357L229.444 356L228.25 354L227.778 353L227.222 352L226.778 351L225.778 349L225.222 348L224.778 347L224.222 346L223.778 345L223.222 344L222.778 343L222.222 342L221.222 340L220.778 339L220.222 338L219.778 337L219.222 336L218.222 334L217.75 333L216.639 331L216.083 330.056L215.639 329.056L215.333 328.5L215 327L228 327L231 327L233 327L235 326.972L236 326.917L238 326.611L239 326.389L240 326.194L242 325.806L243 325.611L244 325.389L246 325.056L247 324.944L249 324.611L251 324.194L253 323.806L254 323.611L255 323.361L256 323.139L257 322.861L257.944 322.639L259.5 322.25L261 322L260.306 323.5L259.917 324.056L259.306 325.056L258.111 327L257.389 329L257.472 330.944L257.861 331.944L259 334L260.5 333.972L262.028 333.667L262.917 333.278L264.611 331.889L265.389 330.972L267.083 329L268.028 328L270 326L271 325L273 323.083L274 322.25L275 321.472L277 320.194L278 319.611L280 318.389L282 317.278L284 316.389L285 316.028L287 315.417L288 315.194L290 314.806L291 314.611L292 314.389L294 314.083L294.944 314.028L295.944 314L298 314L298.972 312.5L299.139 311.944L299.639 310L299.583 309.028L298.722 307.333L297.472 306.361L296 306L298.056 304.528L300 302.917L302 301L303 300L305 298L306.917 296L307.778 295.028L309.333 293.306L309.75 292.778L311 292L311.028 293.5L311.222 295.056L311.417 296L312 298L312.333 299L313 301L314 304L314.333 305L315.028 307L315.389 308L316.25 310L316.778 311L317.222 312L317.75 313L318.167 314L318.611 315L319.389 317L320.25 319L320.778 320L321.222 321L321.778 322L322.25 323L323.389 325L324.028 326L324.667 327L325.333 328L326.667 330L328 332L329.389 334L330.139 335L330.861 335.972L332.361 337.778L333.861 339.361L335.389 340.861L336.222 341.611L337.083 342.306L338.028 343L340 344.389L342 345.861L344 347.389L346 349.056L347 349.944L349 351.611L351 353.222L352 354.083L354 356L355 357L357 359L359 361L360 362L361.917 363.972L363.583 365.778L364.306 366.611L365 367.389L366.389 369.083L367.139 370.028L367.861 371L369.389 373L370.194 374L371.806 376L373.389 378L375 380L376.611 382L378.139 384L378.861 385L379.639 386L380.361 387L381.139 388L382.611 390L383.306 391L384 392L385.333 394L386.611 396L387.167 397L387.722 398L388.167 399L388.972 401L389.278 402L389.528 404L389.417 405L388.583 407L387.306 409L385.778 410.972L384.917 411.917L383 413.528L381 414.806L380 415.389L378 416.611L377 417.167L376 417.75L374 418.778L373 419.222L371 420.222L370 420.75L368 421.611L366 422.389L365 422.833L364 423.25L363 423.778L361 424.75L360 425.167L359 425.639L357 426.611L355 427.861L354 428.556L352 429.833L351 430.444L350.028 431.167L349.083 431.861L348.222 432.639L347.389 433.389L346.611 434.222L345 436.028L343.417 438L342.694 439L341.417 441L340.889 442L340.417 443L339.611 445L338.833 447L338.472 448L338.056 450L337.944 451L337.778 452L337.611 453L337.389 454L337.083 456L337.028 457L337 459L336.972 460L336.917 461L336.611 463L336.389 464L336.056 466L335.944 467L335.611 469L335.389 470L335.083 472L334.917 474L334.583 476L334.306 477L334 478L333.333 480L332.667 482L332.333 483L331.611 485L331.194 486L330.444 488L329.833 490L329.556 491L328.75 493L328.222 494L327.778 495L327.222 496L326.75 497L325.556 499L324.833 500L323.361 502L322.611 503L320.917 505L319.972 506L318 507.917L316 509.583L315 510.306L313 511.667L311 512.889L310 513.361L309 513.722L307 514.194L306 514.417L305 514.694L303 515.306L302 515.583L301 515.778L300 515.917L298.056 516L297.056 516L295 516L294.028 517.5L293.861 518.056L293.444 519L293.083 520.5L293 522L294.5 522.972L296.056 523.556L298 523.917L300 524L302 523.917L304 523.583L305 523.306L306 523L308 522.333L309 522L311 521.389L312 521.139L314 520.556L316 519.75L317 519.222L318 518.75L320 517.528L322 515.944L323 515.056L324.972 513.389L325.917 512.611L327.611 510.917L329.194 509L330.778 507L331.528 506L332.75 504L333.222 503L333.778 502L334.222 501L334.778 500L335.75 498L336.167 497L336.611 496L337.389 494L337.806 493L338.611 491L339.389 489L340.167 487L340.528 486L340.944 484L341.056 483L341.389 481L341.639 480L342.139 478L342.361 477L342.861 475L343.139 474L343.361 473L343.778 471L343.917 470L344.028 468L344.083 467L344.389 465L344.611 464L344.917 462L344.972 461L345.083 459L345.389 457L345.611 456L345.778 455L345.944 454L346.056 453L346.417 451L347.028 449L347.417 448L348.417 446L349.028 445L349.694 444L350.417 443L352.083 441L353.028 440.028L354 439.083L356 437.417L358 436.028L358.944 435.417L359.944 434.889L360.5 434.528L362 434L362 462L362 471L362 473L362 474L362.028 476L362.083 477L362.389 478.944L362.75 480.5L363 482L364.5 482.278L366.056 482.833L367 483.167L368 483.528L370 483.917L371 483.972L373 484L375 484L378 484L393 484L433 484L561 484L565 484L565 485.5L565 491L565 500L565 591L562.944 591.25L561.944 591.5L560.083 592.5L558.417 594.083L557.028 596L555.889 598L555.417 599L555.028 600L554.694 601L554.417 602L554.083 604L554.083 606L554.389 608L554.639 609L555.167 611L555.444 612L556.25 614L556.778 615L557.25 616L558.472 617.972L560.028 619.694L560.528 620.222L562 621L560.5 622.417L558.944 623.639L557 624.972L556 625.611L555 626.194L553 627.389L551 628.667L549 630L548 630.694L547 631.389L546 632.139L544 633.611L543 634.306L541 635.694L540 636.389L538 637.861L537 638.639L536 639.361L534 640.861L533 641.639L532 642.361L531 643.139L530 643.861L528 645.389L527 646.194L526 647L524 648.583L523 649.306L521 650.694L520 651.417L518 653L516 654.583L514 656L512 657.417L510 659L508 660.528L506 661.833L505 662.444L503 663.833L502 664.556L501 665.167L500 665.806L498 667.028L497 667.667L496 668.333L494 669.667L493 670.333L492 670.972L491 671.611L489 672.75L488 673.222L487 673.778L486 674.222L485 674.778L484 675.222L483 675.778L482 676.222L481 676.778L480 677.222L478 678.222L477 678.75L476 679.167L475 679.611L473 680.389L472 680.806L470 681.611L468 682.389L467 682.806L465 683.556L464 683.861L462 684.583L460 685.389L459 685.694L458 685.889L456 685.889L454 685.361L453 684.917L451 683.833L450 683.278L449 682.833L448 682.389L446 681.611L445 681.167L444 680.75L443 680.222L442 679.75L440 678.611L438 677.389L436 676.25L435 675.778L434 675.222L433 674.778L432 674.222L431 673.778L430 673.222L428 672.222L426 671.222L425 670.778L424 670.222L423 669.75L421 668.611L419 667.389L418 666.833L417 666.25L415 665.222L414 664.778L413 664.222L412 663.75L411 663.167L410 662.611L408 661.333L407 660.667L405.056 659.417L404.056 658.889L403.5 658.528L402 658L414 646L416 644L417 643L418.972 641L419.917 640L421.611 638L422.361 637L423.139 636L423.833 635L424.556 634L425.167 633L426.389 631L427.583 629L428.5 627L428.75 626.056L428.972 624.5L429 623L427.5 622.222L426.944 621.694L425.944 620.889L425 619.972L423 618L422 617L419 614L417 612L415 610.083L414.028 609.222L412.222 607.694L411.389 607L410.611 606.306L409.778 605.583L408.917 604.778L407.972 603.917L406 602L404 600.083L402 598.389L401 597.611L399 595.944L398 595.056L396 593.389L395 592.611L393 590.944L392 590.056L390 588.389L388 586.806L386 585.194L385 584.389L383 582.861L382 582.139L381 581.361L379 579.861L378 579.139L376 577.611L375 576.806L373 575.194L372 574.417L371 573.694L369 572.306L368 571.583L367 570.806L365 569.194L364 568.417L363 567.694L361 566.306L360 565.611L358 564.139L357 563.361L356 562.639L355 561.861L353 560.444L352 559.833L350 558.556L349 557.861L347 556.611L346 556.111L344.056 555.417L342.5 555.083L341 555L340.639 553.5L339.667 551.944L338.889 551L337 549.083L335 547.389L334 546.611L332 544.944L330 543.222L329 542.417L327 541L326 540.333L324 539L322 537.667L321 537.028L320 536.389L319 535.833L318 535.25L316 534.222L315 533.778L313 532.778L312 532.222L311 531.778L310 531.222L308 530.222L307 529.778L306 529.222L305 528.778L304 528.25L302 527.444L301 527.167L300 526.861L299 526.611L297 526L295 525.333L294 524.972L293 524.611L291.056 523.806L290.5 523.5L289 523L288.972 521.5L288.75 519.944L288.528 519L287.722 517L286.528 515L284.917 513L283 511.083L281 509.417L280 508.694L278 507.417L276 506.417L274 505.611L272 504.806L271 504.389L270 504.028L268 503.389L266 502.861L265 502.639L263 502.222L262 502.083L260 502L258 501.972L257 501.917L255 501.611L254 501.389L252 501.083L251 501.028L249 501L247 501L244 501L238 501L237 501L235 501.028L234 501.083L232 501.389L231 501.611L229 501.917L228 501.972L226 502L224 502.028L223 502.083L221 502.389L220 502.611L218 502.917L217 502.972L215 503.083L214 503.222L212 503.611L210 504L208 504.417L207 504.694L205 505.306L204 505.583L202 506L201 506.194L199 506.611L197 506.944L195 507.222L194 507.417L192 508L191 508.306L190 508.611L188 509.139L187 509.361L186 509.639L184 510.139L183 510.389L182 510.694L181 511L180 511.333L178 512L174 513.333L172 514L170 514.5L169 514.556L168 514.528L166 514.139L164 513.528L162 512.583L160 511.306L159 510.583L157.083 508.917L155.417 507L154.694 506L153.389 504L152.25 502L151.778 501L150.778 499L150.25 498L149.833 497L149.389 496L148.667 494L148.333 493L147.611 491L147.194 490L146.472 488L145.972 486L145.694 485L145.278 484.028L143.889 482.333L142.056 481.333L140.5 481.028L139 481L137.889 483.056L137.528 484.056L137.5 486L138 488L138.306 489L138.611 490L138.861 491L139.389 493L139.694 494L140 495L140.667 497L141.028 498L141.389 499L141.806 500L142.611 502L143.389 504L143.833 505L144.278 506L144.833 507L145.389 508L146.028 509L147.333 511L148.694 513L150.222 514.917L152.028 516.583L153 517.306L154.944 518.611L155.5 518.944L157 520L155.5 520.5L154.944 520.833L153.944 521.25L152 522.222L151 522.778L150 523.222L149 523.778L148 524.222L147 524.778L146 525.25L144 526.389L143 527.028L142 527.667L141 528.333L139 529.667L137 531L136 531.694L135 532.417L133 534.083L131 536L130 537L128 538.917L127 539.75L126 540.5L124 541.583L122 542.389L120 543.25L119 543.778L117 544.778L116 545.222L115 545.778L114 546.222L113 546.778L112 547.222L111 547.778L109 548.778L108 549.25L107 549.833L106 550.389L105 551.028L104 551.667L102 552.972L100 554.194L99 554.833L98 555.472L96 557L94 558.611L93 559.389L91 561.083L90 562.028L89 563L87 565L85 567L83.0833 569L82.2222 570L80.6111 572L79.8056 573L78.1944 575L77.4167 576L76 578L75.3333 579L74 581L72.6667 583L72.0278 584L71.3889 585L70.25 587L69.7778 588L69.2222 589L68.7778 590L67.7778 592L67.2222 593L66.7778 594L66.2222 595L65.7778 596L64.7778 598L64.25 599L63.3889 601L62.5833 603L62.0833 604L61.5 604.972L59.9167 606.778L58 608.306L56 609.611L55 610.167L54 610.75L53 611.222L51 612.25L50 612.833L49 613.389L47 614.694L46 615.389L45 616.139L43 617.639L42 618.361L41 619.139L40 619.861L39 620.639L38 621.389L36 623.083L35 624.028L34 625L32 627L30 629L29.0278 630L28.0833 631L27.2222 631.972L25.6944 633.778L25.0278 634.611L24.3889 635.389L23.1667 637.083L22.5556 638.028L21.8333 639L21.1389 640L20.3889 641L19.0278 643L18.3889 644L17.2778 646L16.3889 648L15.6111 650L14.75 652L14.25 653L13.3889 655L12.6111 657L11.8333 659L11.4444 660L11.1667 661L10.8611 662L10.3889 664L10.1944 665L9.80556 667L9.61111 668L9.38889 669L9.08333 671L9.02778 672L9 673L9 675L9 682L9 687L9 689L9.02778 690L9.08333 691L9.38889 693L9.61111 694L9.91667 696L9.97222 697L10.0833 699L10.2222 700L10.6111 702L10.8056 703L11.1944 705L11.3889 706L11.6111 707L11.9444 709L12.0556 710L12.3889 712L12.6111 713L12.8056 714L13.1944 716L13.3889 717L13.6111 718L13.9167 720L14 722L14 724L14.0833 726L14.2222 727L14.6111 729L14.8056 730L15.1944 732L15.3889 733L15.7778 735L15.9167 736L16.0833 738L16.2222 739L16.6111 741L16.9167 743L17.0833 745L17.3889 747L17.8056 749L18.1944 751L18.4167 752L18.6944 753L19.3056 755L19.5833 756L20 758L20.1944 759L20.3889 760L20.8611 762L21.1389 763L21.3611 764L21.8611 766L22.1389 767L22.3611 768L22.6389 769L22.8611 770L23.1389 771L23.3889 772L24 774L24.6667 776L25.0278 777L25.3889 778L26.25 780L26.75 781L27.6111 783L28.3889 785L28.8333 786L29.25 787L30.2222 789L30.7778 790L31.2222 791L31.7778 792L32.7778 794L33.25 795L33.8333 796L34.9444 797.944L35.3056 798.5L36 800L46 800L45.4722 798.5L45.1111 797.944L44.5833 796.944L43.3333 795L42.6667 794L42.0278 793L41.3889 792L40.25 790L39.7778 789L39.2222 788L38.7778 787L38.2222 786L37.7778 785L37.2222 784L36.7778 783L36.2222 782L35.25 780L34.8333 779L34.3889 778L33.6667 776L33 774L32 771L31.3333 769L31 768L30.3889 766L30.1389 765L29.8611 764L29.3889 762L29.1944 761L28.8056 759L28.6111 758L28.3611 757L28.1389 756L27.5556 754L27.1667 753L26.4722 751L26.0556 749L25.9444 748L25.6111 746L25.3889 745L25.0833 743L24.9167 741L24.7778 740L24.3889 738L24.2222 737L23.9444 735L23.6111 733L23.3889 732L23.0833 730L23.0278 729L22.9722 727L22.9167 726L22.6111 724L22.3889 723L22.0556 721L21.7778 719L21.6111 718L21.2222 716L21.0833 715L21 713L20.9167 711L20.7778 710L20.5833 709L20.3056 708L19.6944 706L19.1944 704L19 703L18.6111 701L18.3889 700L18.0833 698L18.0278 697L17.9167 695L17.6111 693L17.3889 692L17.0833 690L17.0278 689L17 687L17 685L17 682L17 679L17 678L17.0278 676L17.0833 675L17.3889 673L17.6111 672L17.9444 670L18.0556 669L18.3889 667L18.6389 666L18.8889 665L19.5833 663L20.4167 661L21.1389 659L21.4444 658L21.8333 657L22.1944 656L23 654L23.8333 652L24.2778 651L25.4444 649L26.8611 647L27.6111 646L29 644L30.4167 642L32.0556 640L32.9444 639L34.6111 637L36.2222 635.083L37.9444 633.389L39.6111 631.806L40.3889 631L42.0833 629.389L43.0278 628.639L44 627.861L45 627.139L47 625.639L48 624.861L50 623.389L51 622.694L52 622L54 620.667L56 619.389L58 618.194L59 617.611L60 616.972L61 616.333L63 615.083L64 614.556L66 613.639L67 613.167L68 612.75L69 612.222L70 611.778L71 611.25L73 610.389L74 610.028L76 609.333L77 609L79 608.306L80 607.917L81 607.472L83 606.528L84 606.083L86 605.333L88 604.694L89 604.389L91 603.861L92 603.639L93 603.361L95 602.861L96 602.639L98 602.139L99 601.861L100 601.639L101 601.361L102 601.139L104 600.556L105 600.167L107 599.472L108 599.25L110 598.944L112 598.611L113 598.389L114 598.194L116 597.806L117 597.611L118 597.389L120 597.056L121 596.944L123 596.611L125 596.222L127 596L128 595.917L130 595.611L131 595.389L133 595.083L134 595.028L136 595L138 595L139 594.972L140 594.917L142 594.611L143 594.389L145 594.083L146 594.028L148 594L149 594L152 594L153 594L155 593.972L156 593.917L158 593.611L159 593.389L161 593.083L162 593.028L164 593L166 593L168 593.083L170 593.389L171 593.611L173 593.917L174 593.972L176 594L177 594L183 594L185 594L186 594.028L187 594.083L189 594.389L190 594.611L192 594.917L193 594.972L195 595L196 595.028L197 595.083L199 595.389L200 595.611L202 595.944L204 596.222L205 596.389L207 596.778L208 596.917L210 597.083L211 597.222L213 597.611L215 597.944L216 598.056L218 598.389L220 598.806L222 599.194L223 599.389L225 599.861L226 600.139L227 600.361L228 600.639L229 600.861L231 601.389L232 601.694L233 602L235 602.667L238 603.667L240 604.333L242 605L244 605.611L245 605.889L247 606.583L248 607.028L250 607.917L251 608.306L253 609.028L254 609.389L256 610.25L257 610.778L258 611.222L259 611.75L261 612.639L262 613.056L264 614.056L265 614.639L267 615.75L268 616.25L270 617.389L272 618.611L273 619.194L275 620.444L276 621.167L278 622.611L279 623.306L281 624.694L282 625.417L284 627.083L286 629L287 630L288 631L290 633L292 635L293 636L294.917 638L296.583 640L298 642L298.667 643L300 645L301.333 647L301.972 648L302.611 649L303.167 650L303.722 651L304.167 652L304.611 653L305.389 655L306.194 657L306.611 658L307.306 660L307.861 662L308.389 664L308.694 665L309.306 667L309.583 668L309.917 670L310.083 672L310.222 673L310.611 675L310.778 676L310.917 677L311 679L311 681L311 682L310.972 684L310.917 685L310.611 687L310.389 688L310.083 690L310.028 691L309.917 693L309.778 694L309.611 695L309.139 697L308.639 699L308.389 700L308.083 702L307.917 704L307.611 706L307.222 708L307.083 709L307 711L307 712L306.917 714L306.611 716L306.222 718L306.083 719L305.917 721L305.778 722L305.389 724L305.083 726L304.972 728L304.917 729L304.611 731L304.389 732L304.083 734L304.028 735L303.917 737L303.778 738L303.389 740L303 742L302.611 744L302.194 746L301.806 748L301.611 749L301.139 751L300.861 752L300.361 754L300.139 755L299.861 756L299.389 758L299.194 759L298.806 761L298.611 762L298.139 764L297.861 765L297.639 766L297.361 767L297.139 768L296.861 769L296.611 770L295.972 772L295.167 774L294.75 775L294.25 776L293.389 778L292.611 780L292.167 781L291.75 782L290.778 784L290.222 785L289.778 786L289.222 787L288.778 788L287.75 790L287.167 791L286.611 792L285.333 794L284.667 795L283.417 796.944L282.889 797.944L282.528 798.5L282 800L292 800L292.75 798.5L293.222 797.944L293.861 796.944L294.556 796L295.75 794L296.222 793L297.222 791L297.75 790L298.639 788L299.056 787L299.528 786L300.417 784L300.806 783L301.583 781L302.028 780L302.917 778L303.278 777L303.861 775L304.139 774L304.389 773L305 771L305.583 769L305.806 768L306.194 766L306.389 765L306.861 763L307.139 762L307.639 760L307.861 759L308.139 758L308.361 757L308.639 756L308.861 755L309.389 753L309.694 752L310 751L310.583 749L310.778 748L311.056 746L311.222 745L311.611 743L311.917 741L311.972 740L312.083 738L312.389 736L312.611 735L312.917 733L312.972 732L313.028 730L313.083 729L313.389 727L313.611 726L313.917 724L313.972 723L314.028 721L314.083 720L314.389 718L314.611 717L314.917 715L314.972 714L315.028 712L315.083 711L315.389 709L315.611 708L315.944 706L316.056 705L316.389 703L316.611 702L316.806 701L317.194 699L317.389 698L317.611 697L317.944 695L318.056 694L318.222 693L318.389 692L318.611 691L318.917 689L318.972 688L319 687L319 685L319 680L319 677L319 676L319 675L318.917 673L318.778 672.056L318.583 671.056L318 669L319.5 669.778L320.056 670.306L321.056 671.111L322 672.028L324 673.917L326 675.611L327 676.389L329 678.056L330 678.944L332 680.611L332.972 681.389L333.889 682.222L335.278 684.028L335.889 686L335.972 687L336 688L335.972 690L335.917 691L335.611 693L335.389 694L335.083 696L335.028 697L335 698L335 700L335 707L335 714L335 716L334.972 717L334.917 718L334.611 720L334.389 721L334.083 723L334.028 724L334 726L334 728L334 734L334 735L333.972 737L333.917 738L333.611 740L333.222 742L333.083 743L332.917 745L332.778 746L332.611 747L332.222 749L332.083 750L332.028 751L331.972 753L331.917 754L331.611 756L331.361 757L331.139 758L330.861 759L330.389 761L330.194 762L329.806 764L329.611 765L329.139 767L328.861 768L328.306 770L327.611 772L326.75 774L326.25 775L325.472 777L325.083 779L325 780.944L325 781.944L325 784L326.167 784.778L326.417 785.306L326.944 786.111L327.306 787.028L327.667 788L328.333 790L329 792L329.667 794L330 795L330.639 796.944L331.028 797.944L331.194 798.5L332 800L340 800L339.917 798.5L339.778 797.944L339.583 796.944L339.306 796L339 795L338.333 793L338 792L337 789L336.333 787L335.611 785L335.194 784L334.556 782L334.472 781L334.639 779L334.806 778L335.222 776L335.472 775L336.167 773L336.556 772L337.139 770L337.389 769L338 767L338.306 766L338.583 765L338.917 763L339.083 761L339.222 760L339.611 758L339.944 756L340.056 755L340.389 753L340.778 751L340.917 750L341.083 748L341.222 747L341.611 745L341.917 743L341.972 742L342 740L342 738L342 737L342.028 735L342.083 734L342.389 732L342.778 730L342.917 729L343 727L343 725L343 721L343 708L343 703L343 701L343.083 699L343.389 697L343.611 696L343.917 694L343.972 693.056L344 692.056L344 690L346.056 691.444L347.056 692.194L348 692.861L349 693.639L351 695.139L352 695.861L354 697.389L356 699.056L357 699.944L359 701.583L360 702.278L362 703.333L363 703.583L364 703.556L365 703.25L366.917 701.889L368.611 700L369.361 699L370.139 698L370.861 697L372.306 695L373 694L374.333 692L376.333 689L377 688L377.694 687L378.389 686L379.861 684L380.639 683L381.361 682L382.139 681L383.611 679L384.306 678L385.694 676L386.417 675L388.056 673L388.944 672L390.611 670L391.389 669L392.972 667.056L393.722 666.056L394.222 665.5L395 664L396.5 664.5L397.056 664.833L398.056 665.278L400 666.389L401 667.028L402 667.667L404 668.972L405 669.611L406 670.194L408 671.389L410 672.611L411 673.167L412 673.75L413 674.222L415 675.222L416 675.778L417 676.222L418 676.778L419 677.222L421 678.25L422 678.833L423 679.389L425 680.611L426 681.167L427 681.75L428 682.222L429 682.75L431 683.611L433 684.417L435 685.417L437 686.611L438 687.167L439 687.75L441 688.778L442 689.222L443 689.778L445 690.75L446 691.167L448 692L449 692.389L450 692.806L452 693.528L454 693.917L455 693.972L457 694L458 694L460 693.917L461 693.75L462 693.528L464 692.833L465 692.444L467 691.833L468 691.556L470 690.75L471 690.25L473 689.389L474 689.028L475 688.667L477 687.972L478 687.611L480 686.75L481 686.222L482 685.778L483 685.222L484 684.778L485 684.222L487 683.222L488 682.778L490 681.778L491 681.222L492 680.778L493 680.222L494 679.75L496 678.611L497 677.972L498 677.333L499 676.667L501 675.389L503 674.194L504 673.611L506 672.333L507 671.667L509 670.333L511 669L512 668.306L513 667.611L514 666.861L516 665.361L517 664.639L518 663.861L520 662.389L521 661.694L522 661L524 659.667L525 659L527 657.583L529 656L531 654.389L533 652.861L534 652.139L536 650.694L538 649.306L539 648.583L541 646.944L542 646.056L544 644.417L545 643.694L547 642.306L548 641.611L549 640.861L551 639.389L553 638L554 637.333L557 635.333L560 633.333L561 632.667L561.944 632.056L562.944 631.389L563.5 631.056L565 630L565 634L565 636L565 639L565 642L565 729L565 756L565 760L565 761L565.028 763L565.083 764L565.417 766L565.722 766.972L566.111 767.889L567.306 769.361L568.111 769.889L570 770.611L571 770.861L573 771.444L574 771.833L576 772.528L577 772.75L578 772.917L580 773.083L581 773.222L583 773.611L584 773.778L585 773.917L587 773.917L589 773.611L590 773.389L591 773.222L593 772.944L595 772.528L596 772.167L597 771.806L599 770.944L600.944 770L601.5 769.667L603 769L603 653L604.5 652.5L605.056 652.167L607 651.222L608 650.778L609 650.222L610 649.75L612 648.556L613 647.833L615 646.361L616 645.611L617.889 643.917L619.278 642L619.889 640.056L620 638.5L620 637L618.5 636.028L617.944 635.861L616.944 635.472L615 635.417L613 636.333L612 637.111L610 638.917L608 640.583L606.056 641.889L605.056 642.361L604.5 642.667L603 643L603 637L605.056 636.917L607 636.611L609 636.139L610 635.833L611 635.556L612 635.167L614 634.361L615.972 633.444L617.75 632.278L619.056 630.778L619.5 629.917L619.806 628L619.639 627.028L619.278 626.111L618.667 625.333L616.972 624.417L615 624.5L614 624.861L613 625.25L612 625.778L610 626.75L608 627.611L606.056 628.306L604.5 628.75L603 629L603 621L604.5 620.722L605.056 620.528L607 619.806L608 619.389L609 619L611 618.167L612 617.722L614 616.611L616 615.306L617 614.583L618.917 612.917L619.778 611.972L621.278 610L621.917 609L622.944 607L623.361 606L623.806 605L624.528 603L624.917 601L624.972 600L625 598L624.972 596L624.889 595L624.278 593.111L622.889 591.639L621 590.722L620 590.417L618 590.167L616 590.389L615.056 590.611L614.056 590.778L613.5 590.917L612 591L611.639 589.5L611.278 588.944L609.889 587.083L608 585.389L607 584.611L605.111 582.917L603.722 581L603.333 580L603.028 578L603 576L603 574L603 571L603 551L603 484L622 484L627 484L655 484L657 484L660 484L668 484L687 484L688 484L696 484L697 484L705 484L715 484L721 484L722 484L730 484L762 484L767 484L769 484L770 484L772 484L773 483.972L775 483.694L776.944 482.944L777.944 482.361L778.5 482.056L780 481L780 479.5L780.083 477.944L780.472 476L780.833 475L781.611 473L782.389 471L782.806 470L783.611 468L784.333 466L784.667 465L785.389 463L786.167 461L786.528 460L786.917 458L787 456L787 454L787 449L787 435L787 425L787 421L786.972 419L786.917 418L786.611 416L786.389 415L786.083 413L786.028 412L786 410L786 408L786 401L786 399L786 381L786 372L786 354L786 351L786 345L786 343L786 341L786 323L786 252L786 248L786 244L786 239L786 234L786 230L786 229L786 228L786 225L786 223L786 219L786 194L786 189L786 181L786 179L786 174L786 171L786 168L786 161L786 159L786 141L786 137L786 133L786 117L786 115L786 97L786 95L786 93L786 85L786 84L786 80L786 75L786 72L786 70L786 68L785.917 66L785.583 64L784.972 62.0555L784.806 61.5L784 60L780.944 60L780 60L778 60L774 60L770 60L765 60L757 60L725 60L720 60L716 60L710 60L708 60L705 60L699 60L698 60L697 60L696 60L692 60L691 60L688 60L684 60L683 60L679 60L676 60L672 60L671 60L670 60L668 60L604 60L603 59L603 53L603 51L603 50L603 44L603 36L601.5 35.2222L600.944 34.6945L599.944 33.8889L598 32.0833L596 30.4722L594 29.2778L593 28.8611L592 28.4722L591 28.2222L590 28L588 27.6111L587 27.3889L585 27.0833L583 27.0278L581 27.2222L580 27.3889L579 27.6389L577 28.1389L576 28.3889L574 29.1111L573 29.6111L571.083 30.8889L569.389 32.3889L568.611 33.2222L567.806 34.0833L566.306 36L565.722 37L565.333 38L565.111 39L565 41L565 42L565 44L565 45L565 47L565 48L565 52L565 60M591 37L590.222 37.7222L589.694 37.75L588.889 37.9445L587.972 37.9722L587 38L585 38L584 38L582 38L576 38L576.778 37L577.306 36.7778L578.111 36.2222L580 35.4722L582 35.0833L584 35L586 35.0833L587.944 35.4445L589.5 36.0278L591 37M574 45L575.5 45.25L577.056 45.6111L579 45.9167L580 45.9722L582 46L584 46L586 46L588 45.9722L589 45.9167L591 45.6111L591.944 45.3889L592.944 45.2222L593.5 45.0833L595 45L595 52L595 60L591.944 60L573 60L573 54L573 52L573 51L573 49L573.028 48.0278L573.056 47.1111L573.25 46.3055L573.278 45.7778L574 45M778 68L778 74L775.944 74L771 74L766 74L763 74L759 74L753 74L752 74L744 74L742 74L738 74L737 74L734 74L729 74L721 74L717 74L715 74L714 74L690 74L689 74L687 74L686 74L684 74L678 74L677 74L669 74L667 74L666 74L665 74L656 74L653 74L652 74L647 74L639 74L638 74L636 74L627 74L626 74L617 74L610 74L607 74L602 74L601 74L593 74L571 74L569 74L568 74L567 74L564 74L558 74L511 74L492 74L489 74L372 74L372.25 72.5L372.667 71L373.028 70.0555L373.194 69.5L374 68L384 68L443 68L457 68L475 68L491 68L494 68L503 68L513 68L515 68L525 68L584 68L591 68L599 68L639 68L641 68L642 68L645 68L646 68L654 68L656 68L659 68L661 68L664 68L665 68L666 68L670 68L693 68L697 68L701 68L702 68L704 68L708 68L712 68L717 68L722 68L723 68L725 68L729 68L735 68L751 68L778 68M772 82L772 83.5L772 85.0555L772 90L772 112L772 113L772 114L772 123L772 124L772 137L772 145L772 167L772 191L772 201L772 206L772 211L772 213L772 221L772 225L772 233L772 234L772 238L772 246L772 251L772 259L772 269L772 285L772 286L772 296L772 301L772 317L772 322L772 367L772 369L772 370L772 389L772 406L772 409L772 419L772 475L740 475L726 475L723 475L716 475L708 475L706 475L705 475L702 475L694 475L689 475L686 475L682 475L674 475L669 475L666 475L662 475L657 475L624 475L618 475L617 475L615 475L614 475L605 475L586 475L581 475L540 475L538 475L524 475L370 475L370 430L371.5 429L372.056 428.778L373.056 428.194L374 427.778L376 426.778L377 426.222L378 425.778L380 424.75L381 424.167L382 423.611L384 422.389L386 421.167L387 420.528L389 418.917L390.972 417L391.917 416L393.583 414L394.972 412L395.583 411L396.528 409L396.833 408L397.361 406L397.694 404L397.694 403L397.556 402L397.306 401L396.667 399L395.972 397L395.583 396L394.583 394L393.389 392L392.194 390L391.611 389L390.306 387L389.611 386L388.139 384L387.361 383L386.639 382L385.861 381L385.139 380L384.361 379L383.639 378L382.861 377L382.139 376L380.611 374L379 372L377.389 370L376.611 369L374.944 367L374.056 366L372.417 364L371.111 362L370.639 361L370.111 359L370.028 358L370 357L370 355L370 349L370 329L370 269L370 205L370 204L370 196L370 188L370 185L370 182L370 174L370 165L370 159L370 150L370 145L370 137L370 132L370 129L370 125L370 117L370 113L370 112L370 108L370 104L370 99L370 95L370 90L370 89L370 86L370 82L388 82L411 82L420 82L437 82L693 82L725 82L727 82L735 82L737 82L740 82L746 82L747 82L748 82L749 82L759 82L764 82L772 82M432 129L433.5 130.056L434.056 130.361L435.056 130.944L437 131.667L438 131.806L440 131.611L442 131.222L443 131.083L445 131L446 131L448 131L452 131L454 131L455 130.972L456 130.917L458 130.611L459 130.389L461 130.083L462 130.028L464 130L466 130L467 130L469 129.972L470 129.917L472 129.611L473.944 129.222L475.5 129.028L477 129L478 130L478 136L472 136L470 136L469 136.028L468 136.083L466 136.389L464 136.778L463 136.917L461 137.083L460 137.222L458 137.611L456 137.917L455 137.972L453 138L451 138.028L450 138.083L448 138.389L447 138.611L445 138.917L444 138.972L442 139L440 139.083L439 139.222L438 139.389L436 139.778L435 139.917L433 140.028L431 140.25L430.028 140.5L428.25 141.5L427.5 142.25L426.5 144.028L426.111 146L426.111 147L426.417 149L426.722 150L427.111 150.972L428.306 152.667L429.111 153.278L430.028 153.667L431 153.889L433 154L435 153.972L436 153.917L438 153.611L439 153.389L441 153.083L442 153.028L444 152.972L445 152.917L447 152.611L449 152.222L450 152.083L452 151.917L453 151.778L455 151.389L457 151.083L458 151.028L460 151L461 151L463 151L465 150.917L467 150.611L468 150.389L470 150.083L471 150.028L472 150L474 150L479 150L479 157L476.944 157L475 157.028L474 157.083L472 157.389L471 157.611L469 157.917L467 158.028L466 158.083L464 158.389L462 158.778L461 158.944L460 159.056L458 159.417L457 159.694L455.056 160.306L453.5 160.75L452 161L451.639 159.528L450.667 158.278L448.972 157.333L447 157.111L445.083 157.5L443.472 158.5L442.278 160.083L441.861 161.028L441.472 162L441.083 164L441.028 165L441 166L440.917 168L440.583 170L440 172L439.667 173L438.667 176L438 178L437.389 180L437.139 181L436.861 182L436.639 183L436.389 184L436.083 186L436 188L436 189L436 190L436.028 192L436.083 193L436.389 195L436.639 196L436.889 197L437.611 199L438.722 200.972L439.417 201.917L441.083 203.583L442.028 204.306L444 205.583L446 206.528L447 206.833L449 207.444L451 208.167L452 208.528L454 208.944L456 209.222L457 209.389L458 209.611L460 209.917L461 209.972L463 210L465 210.028L466 210.083L468 210.389L469 210.611L471 210.917L472 210.972L474 211L475.944 211L479 211L479 217L471 217L469 217L467 217.028L466 217.083L464 217.389L463 217.611L461 217.917L460 217.972L458 218L456 218.028L455 218.083L453 218.389L452 218.611L450 218.917L449 218.972L447 219.028L446 219.083L444 219.389L443.056 219.611L442.056 219.778L441.5 219.917L440 220L439.194 221.5L439.028 222.056L438.667 223.056L438.222 225L438.111 227L438.5 229L439.5 230.889L440.25 231.667L442.028 232.667L444 232.972L445 232.972L446 232.917L448 232.611L449 232.389L451 232.083L452 232.028L454 232L456 232L457 231.972L458 231.917L460 231.611L461 231.389L463 231.083L464 231.028L466 231L468 231L469 230.972L470 230.917L472 230.611L473 230.389L474.944 230.083L475.944 230.028L478 230L478 238L463 238L460 238L458 238L456 238.028L455 238.083L453 238.389L452 238.611L450 238.917L449 238.972L447 239L446 239.028L445 239.083L443 239.389L442 239.611L440 239.917L439 239.972L438 240L436 240L434 240.083L432 240.389L431 240.639L429.028 241.167L428.083 241.472L426.5 242.5L425.944 243.25L425.5 244.083L425.083 246L425.028 247L425.028 249L425.111 250L425.333 251L425.722 251.972L427.111 253.667L429 254.667L431 254.944L432 254.917L434 254.611L435 254.389L437 254.083L439 253.972L440 253.917L442 253.611L443 253.389L445 253.083L446 253.028L448 253L450 253L451 253L453 252.972L454 252.917L456 252.611L457 252.389L459 252.083L460 252.028L462 252L464 252L472 252L475 252L477 251.972L478 251.917L480 251.611L481 251.389L483 251.083L484 251.028L486 251L488 251L489 251L491 251.083L493 251.389L494 251.611L496 251.917L498 252L499 252L502 252L509 252L511 252L513 252.028L514 252.083L516 252.389L517 252.611L519 252.917L520 252.972L522 253L525 253L526 253L528 253L530 253.083L531 253.222L533 253.611L535 253.917L537 253.972L538 253.889L539 253.667L540.889 252.667L541.667 251.889L542.667 250L542.889 249L543 247L542.917 245L542.5 243.083L541.5 241.5L540.75 240.944L539.917 240.5L538 240.083L536 240L534 240L533 239.972L532 239.917L530 239.611L529 239.389L527 239.083L526 239.028L524 239L523 239L520 239L518 238.972L517 238.917L515 238.611L514 238.389L512 238.083L511 238.028L509 238L508 238L504 238L490 238L490 230L504 230L507 230L509 230L511 230.028L512 230.083L514 230.389L515 230.611L517 230.944L518 231.056L520 231.389L521 231.611L523 231.889L524 231.861L524.972 231.667L526.694 230.667L527.361 229.889L527.889 228.972L528.583 227L528.833 225L528.583 223L527.972 221.056L527.806 220.5L527 219L525.5 218.917L524.944 218.778L523.944 218.611L523 218.389L521 218.083L520 218.028L518 218L516 217.972L515 217.917L513 217.611L512 217.389L510 217.083L509 217.028L507 217L506 217L503 217L491 217L491 211L493.056 211L494.056 211L496 210.972L497 210.917L499 210.611L500 210.389L502 210.083L503 210.028L505 210L507 209.917L509 209.583L510 209.306L512 208.667L513 208.333L516 207.333L518 206.667L519 206.333L521 205.611L523 204.722L524 204.139L525 203.528L526.917 201.917L527.778 200.972L528.583 200L529.917 198L530.917 196L531.278 195L531.806 193L532.194 191L532.611 189L532.75 188L532.833 187L532.611 185L532.389 184L532.083 182L532.028 181L532 179L531.917 177L531.528 175L531.139 174L530.222 172L529.139 170L528.556 169L527.139 167.083L526.361 166.222L525.611 165.389L524.778 164.639L523.917 163.889L522 162.583L520 161.5L518 160.528L517 160.083L515 159.333L514 159L512 158.417L511 158.194L509 157.806L508 157.611L507 157.389L505 157.083L504 157.028L502 157L500 157L492 157L491 156L491 150L492 149L510 149L516 149L518 149L519 149.028L520 149.083L522 149.389L523 149.611L525 149.917L526 149.972L527 150L529 150L532 150L534 150L536 150L537 149.972L538 149.889L539.972 149.278L541.667 147.889L542.278 146.972L542.667 146L542.889 145L542.972 143L542.75 141.028L542.5 140.083L542.083 139.222L541.056 137.667L540.694 137.25L540 136L536 136L528 136L524 136L523 136L521 135.972L520 135.917L518 135.611L517 135.389L515 135.083L514 135.028L512 135L511 135L505 135L502 135L500 135L498 135.028L497 135.083L495 135.389L494.056 135.611L493.056 135.778L492.5 135.917L491 136L490 135L490 131.944L490 130.056L490 128L491 127L493.056 127L495 126.972L496 126.917L498 126.611L499 126.389L501 126.083L502 126.028L504 125.972L506 125.778L508 125.389L509 125.194L511 124.806L512 124.611L514 124.222L515 124.083L517 123.972L518 123.917L520 123.611L521 123.389L522 123.194L524 122.806L525 122.611L526 122.389L528 122.056L529 121.944L531 121.528L532.944 120.806L533.5 120.5L535 120L535.25 118.5L535.611 116.944L535.889 115L535.778 113L535.278 111L534.361 109.111L533.694 108.333L532.889 107.722L531.972 107.333L530 107.111L529 107.222L527 107.611L525 108L523 108.389L522 108.611L521 108.806L519 109.194L518 109.389L517 109.611L515 109.944L514 110.056L513 110.222L511 110.611L509 110.917L507 111.028L506 111.083L504 111.389L503 111.611L501 111.917L500 112L498 112.222L497 112.417L496 112.694L494 113.306L493 113.583L491 113.917L490 113.972L488 114.028L487 114.083L485 114.389L483 114.778L482 114.917L480 115.083L479 115.222L477 115.611L475 115.917L474 115.972L472 116L471 116L469 116L467 116.028L466 116.083L464 116.389L463 116.611L461 116.917L460 116.972L458 117L457 117L455 117L448 117L446 117L445 117L443 117L442 117.028L441 117.083L439 117.389L438 117.611L436 118.028L435.028 118.306L434.111 118.722L432.722 120.111L432.111 122L432 124L432 125L432 125.944L432 129M638 127L628 127L625 127L623 127.028L622 127.083L620 127.389L619 127.611L617 127.917L616 127.972L614 128L613 128L611 128L609 128L608 128L606 127.972L605 127.917L603 127.611L602 127.389L600 127.083L598 127.083L597.056 127.222L596.056 127.417L594 128L593.75 129.5L593.389 131.056L593.083 133L593 135L593 137L593 138L592.972 140L592.917 141L592.611 143L592.222 145L592.083 146L592 148L592 150L592 152L592 153L592 155L592 157L591.972 158L591.917 159L591.611 161L591.389 162L591.083 164L591.028 165L590.917 167L590.778 168L590.389 170L590.083 172L590.028 173L590 175L589.972 177L589.917 178L589.611 180L589.389 181L589.083 183L589.028 184L589 186L588.972 188L588.917 189L588.611 191L588.389 192L588.083 194L588.028 195L588 197L587.972 198L587.917 199L587.611 201L587.222 203L587.083 204L586.972 206L586.917 207L586.611 209L586.389 210L586.083 212L586.028 213L585.972 215L585.917 216L585.611 218L585.389 219L585 221L584.611 223L584.389 224L584.194 225L583.806 227L583.611 228L583.222 230L583.083 231L582.917 233L582.611 235L582.389 236L582.056 238L581.944 239L581.611 241L581.389 242L581.083 244L581.028 245L581 247L581 248L581.083 250L581.5 251.917L581.944 252.75L582.5 253.5L583.25 254.056L585.028 254.75L586 254.917L588 254.889L589.917 254.278L591.5 252.889L592.056 251.972L592.5 251L593 249L593.194 248L593.389 247L593.611 246L593.944 244L594.056 243L594.389 241L594.611 240L595.194 237L595.389 236L595.611 235L595.917 233L595.972 232L596 230L596.028 229L596.083 228L596.389 226L596.611 225L596.944 223L597.222 221L597.389 220L597.778 218L597.972 216L598.028 214L598.083 213L598.389 211L598.611 210L598.917 208L598.972 207L599.083 205L599.389 203L599.611 202L599.944 200L600.222 198L600.389 197L600.778 195L600.917 194L601.028 192L601.083 191L601.389 189L601.611 188L601.917 186L601.972 185L602 183L602 182.056L602 179L604.056 179L605.056 179L607 179L609 179.028L610 179.083L612 179.389L613 179.611L615 179.917L616 179.972L618 180L621 180L629 180L634 180L640 180L644 180L646 180L648 179.917L649 179.778L651 179.389L653 179.083L654 179.028L656 179L658 179L661 179L662 179L663 179L667 179L673 179L677 179L679 179L681 178.917L683 178.611L684 178.389L686 178.056L687 177.917L688 177.694L690 176.889L691 176.278L692.972 174.778L693.917 173.917L695.528 172L696.722 170L697.528 168L697.917 166L698.083 164L698.389 162L698.611 161L698.917 159L699 157L699 156L699 155L699 153L699 150L699 149L698.972 147L698.917 146L698.611 144L698.361 143L697.861 141L697.611 140L696.972 138L696.583 137L695.5 135L694.75 134.028L693.917 133.083L692 131.472L691 130.861L689 129.778L688 129.25L686 128.472L685 128.25L684 128.056L682 127.778L681 127.611L680 127.389L678 127.083L677 127.028L676 127L675 127L673 127L671 126.972L670 126.917L668 126.611L667 126.389L665 126.083L664 126.028L662 126L660 126L651 126L651 123.944L650.972 122.944L650.917 122L650.611 120L650.389 119L650.056 117L649.944 116L649.611 114L649.361 113L648.75 111L648.306 110.028L646.889 108.333L645.972 107.722L644 107.111L642 107.111L641 107.333L639.111 108.333L637.722 110.028L637.333 111L637.028 113L637.083 115L637.389 117L637.778 119L637.917 120L638 122L638 123.944L638 124.944L638 127M684 143L684.444 144.5L684.667 145.056L685.306 147L685.583 148L685.778 149L685.917 150L686 152L686 153L686 155L686 157L686 158L685.889 160L685.278 161.889L684.667 162.667L683.889 163.278L682 163.889L681 163.972L679 164.028L678 164.083L676 164.389L675 164.611L673 164.917L672 164.972L670 165L669 165L666 165L665 165L663 165.028L662 165.083L660 165.389L659 165.611L657 165.917L656 165.972L654 166L651 166L643 166L638 166L631 166L627 166L625 166L623 165.917L622 165.778L620 165.389L618 165.083L617 165.028L615 165L613 165L609 165L604 165L604 158L604 156L604 154L604 153L604.028 151L604.083 150L604.389 148L604.778 146.056L604.972 144.5L605 143L607.056 142.972L608.056 142.917L610 142.611L611 142.389L613 142.083L614 142.028L616 142L617 142L619 142L621 141.917L623 141.611L624 141.389L626 141.083L627 141.028L629 141L631 141L634 141L648 141L653 141L661 141L664 141L665 141L667 141.028L668 141.083L670 141.389L671 141.611L673 141.917L674 141.972L676 142L678 142.028L679 142.083L680.944 142.389L682.5 142.75L684 143M492 199L492 189L494.056 189L496 189.083L497 189.222L499 189.611L501 189.917L502 189.972L504 189.917L505 189.75L505.972 189.5L507.75 188.5L509.056 186.917L509.5 185.972L509.889 184L509.861 183L509.667 182L509.278 181.028L508.667 180.083L506.972 178.5L506 177.944L505 177.5L503 177.083L502 177.028L500 177L499 177L497 177L492 177L491.917 175.5L491.778 174.944L491.389 173L491.083 171.056L491 169L492 168L494.056 168L495.056 168.028L496 168.083L498 168.389L499 168.611L500 168.806L502 169.194L503 169.389L504 169.611L506 170L508 170.417L510 171.028L511 171.417L512 171.889L513.917 173.028L515.583 174.417L516.917 176.083L517.917 178L518.583 180L518.778 181L518.917 182L519 184L519 185L519 186L518.917 188L518.5 190L518.056 191L517.5 191.972L515.917 193.75L514.972 194.5L513 195.583L512 195.972L510 196.583L508 196.944L507 197.056L505 197.389L504 197.611L502 197.917L501 197.972L499 198L498 198.028L497 198.083L495.056 198.389L493.5 198.75L492 199M479 169L479 177L477.5 177.25L475.944 177.611L474 177.917L473 177.972L472 178L470 178L465 178L464 178L462 178.028L461 178.083L459 178.389L458 178.611L456 178.917L455 178.972L453.056 179L452.056 179L450 179L450.083 177.5L450.222 176.944L450.389 176L450.75 174.5L451 173L452.5 172.917L453.056 172.778L455 172.389L457 172.056L458 171.944L460 171.611L461 171.389L462 171.194L464 170.806L465 170.611L466 170.389L468 170.056L469 169.944L471 169.611L472 169.389L474 169.083L475 169.028L476.944 169L479 169M314 181L314.083 183.056L314.389 185L314.778 187L315.056 189L315.389 191L315.611 192L315.917 194L315.972 195L316.028 197L316.083 198L316.389 200L316.611 201L316.917 203L316.972 204L317 206L317 208L317.028 209L317.083 210L317.389 212L317.611 213L317.917 215L317.972 216L318 217L318 219L318 224L318 230L318 232L318.028 233L318.111 234L318.722 235.972L319.333 236.889L321.028 238.194L323 238.389L325 237.583L326 236.972L327 236.306L328 235.583L330 233.944L331 233.056L332.944 231.5L334.5 230.528L336 230L335.75 231.5L335.361 233.056L335.139 234L334.861 235L334.639 236L334.361 237L334.139 238L333.556 240L333.167 241L332.444 243L331.833 245L331.556 246L330.806 248L330.389 249L329.611 251L329.167 252L328.75 253L328.222 254L327.222 256L326.75 257L325.611 259L324.972 260L323.667 262L322.306 264L321.583 265L320.806 266L319.194 268L317.611 270L315.917 272L314 274L312 275.917L311.028 276.778L309.25 278.389L308.472 279.222L307.25 281.028L306.75 282L305.611 284L304.972 285L303.611 287L302.861 288L302.139 289L300.611 291L299.778 291.972L298.917 292.917L297 294.611L295 296.222L294 297.056L293 297.944L291 299.583L290 300.306L288 301.667L286 302.972L285 303.611L283 304.75L282 305.222L280 306.222L279 306.778L278 307.222L276 308.222L275 308.75L274 309.167L273 309.611L271 310.389L269 311.194L267 311.972L265 312.611L263 313.139L262 313.389L261 313.694L259 314.306L258 314.583L257 314.806L255 315.194L254 315.389L253 315.611L252 315.806L250 316.194L249 316.389L248 316.611L246 316.917L244 317.028L243 317.083L242 317.222L240 317.611L239 317.806L237 318.194L236 318.389L235 318.611L233 318.917L232 318.972L231 319L229 319L223 319L205 319L204 320L204 321.5L204.083 323.056L204.472 325L204.861 326L205.778 328L206.25 329L206.833 330L207.361 331L208.472 333L209.528 335L210.056 336L211.167 338L211.722 339L212.167 340L213.056 342L214.056 344L215.167 346L215.75 347L216.778 349L217.222 350L217.75 351L218.139 351.944L218.722 353.5L219 355L216.944 355L215.944 354.972L215 354.917L213 354.611L212 354.389L210 354.083L209 354.028L208 354L206 354L204 354.028L203 354.083L201 354.472L199 355.25L198 355.778L196 356.833L195 357.389L193 358.694L192 359.417L190.083 361.083L189.222 362.028L187.639 364L186.889 365L185.667 367L184.806 369L184.417 370L183.611 372L183.111 374L183.028 375L183 377L183 378L183 380L183 382L183 383L183 384L183.083 386L183.222 387L183.639 389L183.861 390L184.139 391L184.361 392L184.778 394L184.917 395L185 397L185 399L185.028 400L185.083 401L185.389 403L185.611 404L185.778 405L185.944 406L186.056 407L186.389 409L186.639 410L186.861 411L187.389 413L188.028 415L188.389 416L188.806 417L189.639 418.972L190.056 419.917L191.056 421.611L191.639 422.389L192.75 424.083L193.25 425.028L194.472 427L196.083 429L198 430.972L199 431.917L201 433.583L203 434.972L205 436.167L206 436.75L207 437.222L208 437.75L210 438.528L210.944 438.75L212.5 438.972L214 439L213.667 440.5L213.389 441.056L212.972 442.056L212.056 444L211.194 446L210.806 447L210.389 448L210.028 449L209.389 451L209.139 452L208.556 454L207.833 456L207.444 457L206.861 459L206.639 460L206.389 460.944L206.222 461.944L206.083 462.5L206 464L195 464L193 464L192 464L190 464.028L189 464.083L187 464.389L186 464.611L184 464.917L183 464.972L181 465L180 465L177 465L175 465L173 465.028L172 465.083L170 465.389L169 465.611L167 465.917L166 465.972L164 466L162 466L161 466L159 466.028L158 466.083L156 466.389L155 466.611L153 466.917L152 466.972L150 467L148 467L147 467.028L146 467.083L144 467.389L143 467.611L141 467.917L140 467.972L138 468L136 468L135 468.028L134 468.083L132 468.389L131.056 468.611L130.056 468.778L129.5 468.917L128 469L127.194 467.5L127.028 466.944L126.639 465.944L125.972 464L125.611 463L125.194 462L124.444 460L124.139 459L123.417 457L122.972 456L122 454L121.028 452L120.583 451L119.861 449L119.556 448L118.806 446L118.389 445L117.611 443L116.806 441L116.389 440L116.028 439L115.306 437L114.917 436L114.472 435L113.611 433L113 431L112.389 429L111.528 427L111.083 426L110.333 424L110 423L109 420L107.667 416L107 414L106.389 412L105.778 410L105.417 409L104.528 407L104.083 406L103.694 405L103 403L102.389 401L101.861 399L101.611 398L101.306 397L101 396L100.667 395L100 393L99.4167 391L99 389L98.7778 388L98.5278 387L97.75 385L97.25 384L96.8611 383L96.4444 382L96.1667 381L95.8611 380L95.6389 379L95.1389 377L94.6389 375L94.3889 374.056L94.2222 373.056L94.0833 372.5L94 371L92.5 370.75L90.9444 370.5L89 370.806L87 372.111L86 373L84 374.778L83 375.583L81 376.972L80 377.583L79.0556 378.083L77.5 378.722L76 379L76.6944 377.5L77.0556 376.944L78.1944 375L78.8056 374L79.9444 372.028L80.9722 370.333L81.5556 369.722L81.8333 369.361L83 369L83.0278 367.5L83.2222 365.944L83.4167 365L83.6944 364L84.3056 362L84.6111 361L85.1389 359L85.3611 358L85.6389 357L85.8611 356L86.3611 354L86.6111 353L86.9167 351L87 349L87 347L87 346.056L87 343L85.5 342.75L83.9444 342.389L82 342.083L81 342.028L79 342L78 342L76 342L65 342L61 342L59 342L57 341.972L56.0556 341.944L55.0556 341.75L54.5 341.722L53 341L53.7778 340.194L54.3056 340.028L55.1111 339.667L57 339.139L58 338.861L59 338.611L60 338.306L62 337.611L63 337.167L64 336.75L65 336.222L66 335.75L68 334.556L69 333.833L70.9722 332.361L71.9167 331.639L73.6111 330.139L74.3611 329.361L75.1389 328.611L76.6111 326.917L77.3056 325.972L78.6111 324L79.7222 322L80.1667 321L80.6111 320L80.9722 319L81.6111 317L81.8611 316L82.3611 314L82.6111 313L82.9167 311L82.9722 310L83 308L83 306L83 305L83.0278 303L83.0833 302L83.3889 300L83.6111 299L83.9167 297L84.0278 295L84.0833 294L84.3889 292L84.8056 290L85.1944 288L85.4167 287L86.0278 285L86.3889 284L86.8333 283L87.2778 282L87.8333 281L89.0278 279L90.4167 277L92.0833 275.083L94 273.5L95 272.917L96 272.417L98 271.667L99 271.333L101 270.694L102 270.417L104 270.083L105 270.028L107 269.972L108 269.889L109 269.667L110.889 268.667L112.306 266.972L112.75 266L113.361 264L113.861 262L114.139 261L114.389 260L115.028 258L115.389 257L115.806 256L116.611 254L116.972 253L117.333 252L117.667 251L118.333 249L119.028 247L119.417 246L120.417 244L121.611 242L122.167 241L122.75 240L123.222 239L123.778 238L124.25 237L125.389 235L126.028 234L126.667 233L128 231L129.389 229L130.139 228L131.639 226L132.389 225L134.083 223L136 221L137 220L138 219L139 218L141 216.083L143 214.389L145 212.861L146 212.167L147 211.444L148 210.833L150 209.611L152 208.389L153 207.833L154 207.25L155 206.778L156 206.25L158 205.389L159 205.028L160 204.667L162 203.972L164 203.194L165 202.833L166 202.444L168 201.861L169 201.639L170 201.389L172 201.056L173 200.944L174 200.778L175 200.611L176 200.389L178 200.083L179 200.028L180 200L182 200L187 200L190 200L192 200L194 200.028L195 200.083L197 200.389L198 200.611L200 200.944L201 201.056L203 201.389L204 201.639L205 201.861L206 202.139L208 202.611L209 202.806L211 203.194L212 203.389L214 203.861L215 204.139L217 204.639L218 204.889L220 205.583L222 206.389L223 206.722L225 207.278L226 207.611L228 208.417L230 209.111L231 209.389L232 209.694L234 210.306L235 210.611L236 210.861L238 211.389L239 211.694L240 212L242 212.667L243 213L245 213.583L247 214L249 214.389L251 214.861L253 215.389L255 216L257 216.583L258 216.778L259 216.917L261 217L262 217L263 217L265 217L268 217L269 217L271 216.917L273 216.611L274 216.361L275 216.139L277 215.611L278 215.306L280 214.667L282 213.972L283 213.611L284 213.167L285 212.722L286 212.167L287 211.611L289 210.306L290 209.583L292 207.944L293 207.056L294.972 205.389L295.917 204.639L297.583 203.139L298.306 202.361L299 201.611L299.694 200.778L301.222 198.972L302.944 197L303.778 196L304.583 195L305.972 193L306.611 192L307.194 191L308.389 189L309.667 187L310.333 186L311.611 184.028L312.75 182.306L313 181.778L314 181M479 190L479 194L479 199L477.5 198.917L476.944 198.778L475.944 198.611L475 198.389L473 198.083L472 198.028L470 198L469 198L467 198L465 197.972L464 197.917L462 197.611L461 197.389L459 197.056L457 196.75L456 196.528L454.028 195.722L452.333 194.583L451.361 193.417L451 192L452.5 191.917L453.056 191.778L454.056 191.611L455 191.389L457 191.083L458 191.028L460 190.972L461 190.917L463 190.611L464 190.389L466 190.083L467 190.028L469 190L471 190L479 190M648 195.389L647 195.611L645 195.917L643 196L642 196L640 196.028L639 196.083L637 196.389L636 196.611L634 196.917L633 196.972L631 197.083L629 197.389L628 197.611L626 198L624 198.278L623 198.306L621 197.833L620 197.361L618 196.5L616 196.194L615 196.361L614.028 196.722L612.25 198.111L611.5 199.028L610.5 201L610.083 203L610 205L610 207L609.917 209L609.583 211L608.917 213L608.472 214L607.583 216L606.889 218L606.639 219L606.139 221L605.861 222L605.639 223L605.389 224L605.083 226L605.028 227L605 229L605 231L605 233L605.028 235L605.083 236L605.5 238L606.417 240L607.028 241L608.417 242.917L610.083 244.611L611.028 245.361L613 246.833L614 247.528L616 248.583L617 248.972L619 249.611L620 249.861L622 250.361L623 250.611L624 250.778L626 251L627 251.083L629 251.389L630 251.611L632 251.917L633 251.972L635 252L636 252L638 252L640 252L642 252.083L644 252.389L645 252.611L647 252.917L648 252.972L650 253L654 253L656 253L657 253L659 252.972L660 252.917L662 252.611L663 252.389L665 252.083L666 252.028L667 252L669 251.972L670 251.917L672 251.611L674 251.222L675 251.083L677 250.917L678 250.778L679 250.583L681 249.972L682 249.611L684 248.806L685 248.389L687 247.583L689 246.528L689.972 245.833L691.778 244.389L692.583 243.694L693.972 242.306L694.611 241.583L695.75 239.917L696.222 238.972L696.75 238L697.528 236L697.944 234L698.056 233L698.389 231L698.611 230L698.917 228L699 226L699 225L699 224L698.917 222L698.611 220L698.389 219L698.222 218L697.944 216L697.778 215L697.583 214L696.917 212L695.944 210L695.361 209L694.806 208L693.528 206L691.917 204.083L690.972 203.222L690 202.417L688 201.028L687 200.417L686 199.889L684 198.944L683 198.472L681 197.611L680 197.306L678 196.944L677 196.778L675 196.389L673 196.083L671 195.917L669 195.611L668 195.389L666 195.083L665 195.028L663 195L662 195L659 195L655 195L653 195L652 195L650 195.083L648 195.389M621 213L623.056 213L624.056 212.972L625 212.917L627 212.611L629 212.139L630 211.861L632 211.389L633 211.194L635 210.806L637 210.389L639 210.083L640 210.028L642 209.917L644 209.611L646 209.222L647 209.083L649 209L650 209L652 209L655 209L659 209L662 209L663 209L665 209.028L666 209.083L668 209.389L669 209.639L670 209.861L671 210.139L673 210.611L674 210.806L676 211.222L677 211.5L679 212.5L679.972 213.25L680.917 214.083L682.528 216L683.139 217L684.139 219L684.528 220L684.75 221L684.917 222L685 224L685 225L685 226L684.917 228L684.75 229L684.5 230L683.5 231.972L682.75 232.917L680.972 234.5L679 235.528L677 236.139L676 236.389L675 236.694L674 237L672 237.583L670 237.917L669 237.972L668 238L666 238.028L665 238.083L663 238.389L662 238.611L660 238.917L659 238.972L657 239L656 239L654 239L650 239L649 239L647 238.972L646 238.917L644 238.611L643 238.389L641 238.083L640 238.028L639 238L637 238L636 238L634 237.972L633 237.917L631 237.611L629 237.139L628 236.861L627 236.611L625 236L623 235.306L622.028 234.889L621.083 234.361L619.5 232.889L618.944 231.972L618.5 231L618.083 229L618 227L618 226L618 225L618 224L618.083 222L618.472 220L618.833 219L619.611 217L620.333 215.056L620.556 214.5L621 213M506 308L502.944 308L501 308L499 308.028L498 308.083L496 308.389L495 308.611L493 308.917L492 308.972L490 309L489 309L486 309L485 309L483 309.028L482 309.083L480 309.389L479 309.611L477 309.917L475 310.028L474 310.083L472 310.389L471 310.611L469 310.917L468 310.972L466 311.111L465.028 311.333L464.083 311.722L462.5 313.111L461.5 315L461.083 317L461.083 319L461.472 321L462.222 322.944L462.778 323.944L464 326L466.056 326L467.056 326L469 325.972L470 325.917L472 325.611L473 325.389L475 325.056L476 324.944L478 324.611L479 324.389L481 324.083L482 324.028L484 323.917L486 323.611L487 323.389L489 323.083L490 323.028L492 323L494 323L497 323L510 323L510.25 324.5L510.611 326.056L510.944 328L511.056 329L511.472 331L511.833 332L512.611 334L512.972 335L513.583 337L513.944 339L514.056 340L514.389 342L514.639 343L514.861 344L515.389 346L515.694 347L516.306 349L516.583 350L516.944 352L517.056 353L517.389 355L517.611 356L517.806 357L518.194 359L518.389 360L518.861 362L519.139 363L519.611 365L519.944 367L520.056 368L520.417 370L520.694 371L521.306 373L521.583 374L521.806 375L522.194 377L522.611 379L522.917 381L523.028 383L523.083 384L523.389 386L523.639 387L524.139 389L524.361 390L524.611 391L524.917 393L525.083 395L525.222 396L525.611 398L525.944 400L526.056 401L526.389 403L526.778 405L527 407L527.083 408L527.389 410L527.611 411L527.917 413L527.972 414L528 415.944L528 418L529.167 418.778L529.389 419.25L529.972 420.056L531 422L533.056 422L535 421.917L536 421.75L537.889 421.056L538.694 420.5L539.889 418.917L540.278 417.972L540.778 416L540.889 414L540.611 412L540.389 411L540.056 409L539.778 407L539.611 406L539.222 404L539.083 403L538.972 401L538.917 400L538.611 398L538.361 397L537.861 395L537.389 393L537.194 392L536.806 390L536.611 389L536.139 387L535.861 386L535.639 385L535.389 384L535.083 382L534.917 380L534.778 379L534.389 377L534.194 376L533.806 374L533.611 373L533.389 372L533.056 370L532.944 369L532.611 367L532.389 366L532.083 364L531.917 362L531.611 360L531.361 359L531.139 358L530.611 356L530.306 355L529.694 353L529.417 352L529.056 350L528.944 349L528.583 347L528.306 346L527.694 344L527.417 343L527.056 341L526.944 340L526.611 338L526.361 337L525.861 335L525.639 334L525.139 332L524.861 331L524.389 329L524 327L523.583 325.056L523 323L530 323L532 323L534 323.028L535 323.083L537 323.389L539 323.778L540 323.917L542 323.972L543.972 323.75L544.917 323.5L546.5 322.5L547.583 320.917L547.972 319.972L548.583 318L548.75 317L548.833 316L548.5 314L547.5 312.083L545.917 310.5L544.972 309.944L544 309.5L542 309.083L540 309L538 308.972L537 308.917L535 308.611L534 308.389L532 308.083L531 308.028L529 308L527 308L519 308L518.917 306.5L518.778 305.944L518.583 304.944L518.306 304L517.694 302L517.389 301L517.139 300L516.861 299L516.389 297L516.194 296L515.806 294L515.611 293L515.139 291L514.861 290L514.611 289L513.972 287L513.611 286L513.194 285L512.389 283L511.667 281L511.333 280L510.583 278.028L509.5 276.25L508.75 275.5L506.972 274.528L506 274.333L504 274.528L502.083 275.5L500.5 277.083L499.5 279L499.25 280L499.111 282L499.417 284L500 286L500.306 287L500.611 288L501.139 290L501.389 291L501.694 292L502 293L502.583 295L502.806 296L503.194 298L503.694 300L504.389 302L504.806 303L505.167 304L505.528 304.944L505.917 306.5L506 308M663 308L658 308L656 308L655 308.028L654 308.083L652 308.389L651 308.611L649 308.917L647 309L645 309L644 309L642 309.028L641 309.083L639 309.389L638 309.611L636 309.917L635 309.972L633 310L632 310.028L631 310.083L629 310.389L628 310.611L626 310.917L625 311L623.028 311.25L621.25 311.944L620.472 312.5L619.278 314.083L618.472 316L618.111 318L618.111 319L618.417 321L618.722 321.972L619.111 322.917L620.306 324.5L621.111 325.056L622.028 325.5L624 325.889L625 325.889L627 325.611L629 325.222L630 325.083L631 325.028L633 324.917L634 324.778L636 324.389L637 324.222L638 324.083L640 324L642 323.972L643 323.917L645 323.611L646 323.389L648 323.083L649 323.028L651 323L655 323L657 323L660 323L667 323L667.083 324.5L667.222 325.056L667.611 327L668.028 329L668.278 330L669 332L669.778 334L670.111 335L670.639 337L670.861 338L671.361 340L671.611 341L671.944 343L672.056 344L672.417 346L672.694 347L673.306 349L673.778 351L674.056 353L674.389 355L674.611 356L674.806 357L675.194 359L675.389 360L675.611 361L675.944 363L676.056 364L676.417 366L676.694 367L677.306 369L677.583 370L677.806 371L678.194 373L678.389 374L678.611 375L678.806 376L679.194 378L679.389 379L679.611 380L679.917 382L680.083 384L680.389 386L680.639 387L681.139 389L681.361 390L681.611 391L681.917 393L682.083 395L682.222 396L682.611 398L682.917 400L682.972 401L683.083 403L683.222 404L683.611 406L683.806 407L684.194 409L684.389 410L684.611 411L684.944 413L685.056 414L685.472 416L685.833 417L686.583 418.944L687.194 420.5L688 422L690.056 422L692 421.972L693 421.889L694.889 421.278L696.361 419.889L696.889 418.972L697.278 418L697.75 416L697.833 415L697.611 413L697.389 412L697.083 410L696.917 408L696.778 407L696.389 405L696.083 403L696.028 402L695.917 400L695.611 398L695.361 397L694.861 395L694.361 393L694.139 392L693.639 390L693.389 389L693.056 387L692.944 386L692.611 384L692.389 383L692.056 381L691.944 380L691.611 378L691.389 377L691.194 376L690.806 374L690.611 373L690.389 372L690.056 370L689.944 369L689.611 367L689.389 366L689.194 365L688.806 363L688.611 362L688.389 361L688.056 359L687.944 358L687.611 356L687.194 354L687 353L686.583 351L686 349L685.694 348L685.389 347L685.139 346L684.861 345L684.389 343L684.194 342L683.806 340L683.389 338L683 336L682.611 334L682.361 333L682.139 332L681.861 331L681.389 329L681 327L680.583 325.056L680 323L687 323L689 323L690 323.028L691 323.083L693 323.389L694 323.611L696 323.917L697 323.972L699 324L699.944 324L703 324L703.667 322.5L704 321.944L704.917 320L705.583 318L705.75 317L705.833 316L705.5 314L704.5 312.083L702.917 310.5L701.972 309.944L700 309.25L698 309.028L697 309L695 308.972L694 308.917L692 308.611L691 308.389L689 308.083L688 308.028L686 308L684 308L676 308L675.75 306.5L675.361 304.944L675.139 304L674.861 303L674.639 302L674.361 301L674.139 300L673.639 298L673.361 297L673.139 296L672.639 294L672.361 293L672.139 292L671.861 291L671.639 290L671.111 288L670.417 286L669.611 284L669.278 283L669.028 282L668.5 280L668.083 279L666.972 277.083L665.583 275.5L663.917 274.528L662 274.333L660.028 274.944L659.083 275.5L657.5 277.083L656.5 279L656.278 280L656.167 281L656.389 283L656.639 284L657.139 286L657.361 287L657.639 288L657.861 289L658.389 291L658.694 292L659 293L659.583 295L659.806 296L660.194 298L660.694 300L661.333 302L661.667 303L662.306 304.944L662.583 305.944L662.75 306.5L663 308M526.083 275.722L524.5 277.111L523.5 279L523.083 281L523.056 282L523.333 284L523.722 285L525.111 287L526.917 289L528.611 291L529.389 292L531.056 294L531.944 295L533.611 297L535.222 298.889L537.028 300.278L538 300.667L539 300.861L540 300.861L541.972 300.278L543.667 298.889L544.278 297.972L544.667 297L544.889 296L544.972 294L544.667 292L544.306 291L543.111 289L541.694 287L540.306 285L539.583 284L537.917 282L536 280L534 278.028L532 276.333L531 275.722L530 275.333L529 275.139L528 275.139L526.083 275.722M683.083 275.722L681.5 277.111L680.5 279L680.083 281L680.056 282L680.333 284L680.722 285L682.028 286.972L683.611 288.778L684.361 289.611L685.139 290.389L686.639 292.083L687.389 293.028L689 295L690.611 297L692.222 298.889L693.083 299.667L695 300.667L696 300.861L697 300.889L698.917 300.5L699.75 300.056L700.5 299.5L701.5 297.917L701.917 296L701.917 294L701.75 293L701.5 292L700.583 290L699.972 289L698.611 287L697.861 286L696.361 284L695.611 283L693.917 281L692 279L691 278.028L689 276.333L688 275.722L687 275.333L686 275.139L685 275.139L683.083 275.722M426.083 283.5L424.472 284.5L423.278 286.083L422.861 287.028L422.472 288L422.083 290L422.111 292L422.722 294L424.111 295.972L425.028 296.917L427 298.611L428 299.389L430 301L432 302.611L433 303.389L435 305.083L436 306.028L438 307.889L439 308.667L441 309.667L442 309.861L443 309.889L444.917 309.5L446.5 308.5L447.583 306.917L447.972 305.972L448.583 304L448.75 303L448.806 302L448.361 300L447.889 299L447.278 298L445.778 296L444.917 295L443.972 294L442 292.083L440 290.389L439 289.611L437 287.944L435 286.222L434 285.417L432 284.111L431 283.639L429 283.139L427.028 283.25L426.083 283.5M583.083 283.5L581.472 284.5L580.278 286.083L579.861 287.028L579.472 288L579.083 290L579.111 292L579.722 294L581.111 295.917L583 297.611L584 298.389L586 300.056L587 300.944L589 302.611L590 303.389L592 305.083L594 306.972L596 308.667L598 309.667L599 309.861L600 309.889L601.917 309.5L603.5 308.5L604.583 306.917L604.972 305.972L605.556 304L605.694 303L605.5 301L604.722 299L604.139 298L603.528 297L601.917 295L600 293L599 292L597 290.083L595 288.389L594 287.639L592 286.139L591 285.389L589 284.111L588 283.639L586 283.139L584.028 283.25L583.083 283.5M298 329.389L296 329.806L294 330.194L293 330.417L291 331.028L290 331.389L288 332.25L287 332.778L286 333.25L284 334.389L282 335.694L281 336.417L279 338L277.083 339.611L275.417 341.222L274 343.028L273.333 344L272.667 345L271.389 347L270.833 348L270.278 349L269.389 351L268.694 353L268.389 354L268.139 355L267.639 357L267.25 359L267.167 360L267.389 362L267.611 363L267.917 365L267.972 366L268.083 368L268.389 370L268.639 371L269.139 373L269.389 374L270.028 376L270.389 377L271.25 379L271.778 380L272.222 381L272.778 382L273.222 383L273.778 384L274.25 385L275.389 387L276.694 389L277.417 390L279.083 392L281 393.917L283 395.583L284 396.306L286 397.611L287 398.167L288 398.722L289 399.167L290 399.611L292 400.306L293 400.583L295 401L297 401.389L298 401.611L300 401.917L302 402L303 402L304 401.972L305 401.917L307 401.611L308 401.361L310 400.861L311 400.639L312 400.361L313 400.139L315 399.528L317 398.611L318 398.056L320 397L322 395.917L324 394.667L326 393.306L327 392.583L328.972 390.917L330.778 389.028L331.583 388.083L333 386.389L333.667 385.611L334.333 384.778L335.611 382.972L336.722 381L337.611 379L338.389 377L339.167 375L339.556 374L340.139 372L340.361 371L340.611 370L340.917 368L340.972 367L341 366L341 364L341 363L340.917 361L340.611 359L340.361 358L340.139 357L339.556 355L339.167 354L338.361 352L337.444 350L336.917 349L335.583 347L333.917 345L332.083 343L331.25 342L330.472 341L329.167 339L328.528 338L327.75 337.028L326.917 336.083L325 334.417L323 333.028L321 331.833L320 331.278L318 330.444L316 329.861L315 329.639L314 329.389L312 329.083L311 329.028L309 329L308 329L306 329L303 329L302 329L300 329.083L298 329.389M421 349L422.5 348.972L424.056 348.75L425 348.528L427 347.833L428 347.444L430 346.861L431 346.639L432 346.417L434 346.306L435.944 346.611L436.5 346.75L438 347L438 350.056L438 351L437.972 353L437.917 354L437.611 356L437.361 357L437.139 358L436.861 359L436.389 361L436.194 362L435.806 364L435.611 365L435.139 367L434.861 368L434.639 369L434.389 370L434.056 372L433.944 373L433.778 374L433.611 375L433.389 376L433.083 378L433.028 379L433 380L432.972 382L432.917 383L432.611 385L432.389 386L432.083 388L432.028 389L432 390L432 392L432 394L432.083 396L432.389 398L432.611 399L432.778 400L433.056 402L433.25 403L433.472 404L433.861 405L434.778 407L435.25 408L436.472 409.972L438.083 411.75L439.028 412.5L441 413.583L442 413.972L444 414.583L446 414.833L447 414.75L448 414.611L450 414.194L452 413.778L453 413.528L455 412.722L456 412.167L458 410.972L459 410.306L459.972 409.583L460.889 408.778L462.278 406.972L462.889 405L462.972 404L462.889 402L462.667 401L462.278 400L461.667 399.028L460.889 398.111L459.972 397.333L459 396.722L457 396.194L456 396.278L455 396.472L453 397.194L452 397.611L450 398.306L449.056 398.583L448.056 398.778L447.5 398.917L446 399L445 398L444.944 395.944L444.833 394L444.778 393L444.833 392L444.861 391L444.972 389L445 387L445.028 386L445.083 385L445.389 383L445.611 382L445.917 380L446.028 378L446.083 377L446.389 375L446.611 374L446.944 372L447.056 371L447.389 369L447.611 368L447.806 367L448.194 365L448.389 364L448.611 363L448.944 361L449.056 360L449.417 358L449.694 357L450.306 355L450.583 354L450.917 352L451 350L451 348L451 346L450.972 344L450.917 343L450.5 341L449.583 339L448.972 338.028L447.583 336.222L445.917 334.694L444.972 334.028L444 333.417L442 332.5L441 332.25L439 332.028L438 332L436 332L434 332L433 332.028L432 332.083L430 332.389L429 332.639L427 333.139L426 333.389L424.028 334.028L423.083 334.417L421.417 335.417L420.694 336.028L419.417 337.417L418.5 339.083L418.111 341L418.111 342L418.472 344L419.222 345.944L419.778 346.944L420 347.5L421 349M595 347L595 350.056L595 351L594.972 353L594.917 354L594.583 356L594 358L593.417 360L593.083 362L592.917 364L592.778 365L592.583 366L592 368L591.417 370L591.056 372L590.944 373L590.778 374L590.389 376L590.083 378L590.028 379L589.917 381L589.611 383L589.389 384L589.083 386L589.028 387L589 389L589 391L589 392L589.028 394L589.083 395L589.389 397L589.778 399L589.917 400L590.083 402L590.472 404L590.861 405L591.778 407L592.25 408L593.472 409.917L594.25 410.778L595.083 411.583L597 412.889L598 413.389L600 414.111L601 414.361L603 414.75L604 414.833L605 414.75L607 414.361L608 414.111L610 413.417L611 412.972L613 412L615 410.917L616.972 409.583L617.889 408.778L619.278 406.972L619.667 406L619.972 404L619.889 402L619.306 400L618.194 398.056L617.75 397.5L617 396L614.944 396.028L613 396.25L612 396.472L610 397.167L609 397.556L608 397.833L607 398.139L606.056 398.361L604.5 398.75L603 399L602.417 396.944L602.222 395.944L602.083 395L602 393L602 392L602 391L602 389L602 387L602.028 385L602.083 384L602.389 382L602.611 381L602.917 379L603 378L603.222 376L603.611 374L603.944 372L604.056 371L604.389 369L604.611 368L604.944 366L605.056 365L605.389 363L605.861 361L606.139 360L606.611 358L606.806 357L607.194 355L607.611 353L607.917 351L607.972 350L608 349L608 347L607.972 345L607.917 344L607.583 342L607.278 341L606.917 340L605.917 338.028L605.278 337.083L604.583 336.222L602.917 334.722L601 333.611L599 332.889L598 332.639L597 332.389L595 332.083L594 332.028L592 332L590 332L589 332.028L588 332.083L586 332.389L585 332.639L583 333.167L582 333.472L580.028 334.417L579.083 335.028L577.5 336.417L576.5 338.083L576.25 339.028L576.083 340L576.028 342L576.083 343L576.5 345L576.944 345.972L578.25 347.667L579.083 348.278L580.028 348.639L582 348.667L583 348.389L584 348L585 347.583L587 346.889L588 346.639L589 346.417L591 346.306L592.944 346.611L593.5 346.75L595 347M330 353L329.222 353.972L328.694 354.139L327.889 354.556L326 354.917L325 354.972L323 355.083L321 355.389L320 355.611L318 355.917L317 355.972L316 356L314 356.028L313 356.083L311 356.389L310 356.611L308 356.917L307 356.972L306 357L304 357L298 357L290 357L287 357L285 356.972L284 356.917L282 356.611L280.056 356.222L278.5 356.028L277 356L277.083 354.5L277.472 352.944L278.278 351L278.861 350L279.472 349L281.083 347L283 345.083L285 343.417L286 342.694L288 341.389L290 340.278L291 339.833L292 339.389L294 338.667L296 338L298 337.417L299 337.222L300 337.083L302 337L303 337L304 337L306 337L308 337L309 337L311 337.083L313 337.417L314 337.694L316 338.389L317 338.833L318 339.278L319.917 340.472L321.528 342.083L322.722 344L323.139 345L323.556 346L323.861 347L324.694 348.972L325.333 349.889L326.972 351.333L327.944 351.917L328.5 352.167L330 353M471 361L485 361L485 368L485 370L485.028 371L485.083 372L485.389 374L485.611 375L485.917 377L485.972 378L486 380L486 381L486 386L486 400L485 401L483.5 401L481.944 401.111L481 401.306L480 401.611L478 402.389L477 402.694L475 403.056L474 403.25L473 403.5L471.111 404.5L470.333 405.25L469.722 406.083L469.333 407.028L469.111 408L469 410L469 411L469.083 413L469.5 414.917L470.5 416.5L472.083 417.5L473.028 417.75L475 417.889L476 417.778L478 417.389L479 417.194L481 416.806L482 416.611L483 416.389L485 416.056L486 415.944L488 415.611L489 415.389L491 415.056L492 414.944L494 414.611L496 414.222L497 414.083L499 413.917L500 413.778L502 413.389L503 413.222L504 413.083L506 413L508 413L509 413L511 412.889L511.972 412.667L512.917 412.278L513.75 411.667L515.056 409.972L515.5 409L515.917 407L516 405L515.889 403L515.667 402.028L515.278 401.083L514.667 400.25L512.972 398.944L512 398.5L510 398.083L508 398L506 398L504 398.083L502 398.389L501.056 398.611L500.056 398.778L499.5 398.917L498 399L498 384L498 379L498 378L497.972 376L497.917 375L497.611 373L497.389 372L497.083 370L497.028 369L497 368L497 366L497 360L498.5 360L500.056 360.083L501 360.222L502 360.389L503 360.611L505 360.889L506 360.889L508 360.5L508.972 360.056L510.667 358.75L511.278 357.917L511.667 356.972L511.889 356L512 354L511.917 352L511.5 350L511.056 349.028L509.75 347.333L508.917 346.722L507.972 346.333L507 346.111L505 346L504 346L502 345.917L500 345.611L499 345.389L497 345.083L495 345L494 345L493 345L490 345L488 345L486 345.028L485 345.083L483 345.389L482 345.611L480 345.917L479 345.972L478 346L477 346L475 346.083L473 346.5L472.028 346.944L471.111 347.5L469.722 349.083L469.333 350.028L469.111 351L469 353L469 354L469.083 356L469.444 357.944L470.028 359.5L471 361M628 361L633 361L636 361L642 361L642 368L642 370L642.028 371L642.083 372L642.389 374L642.611 375L642.917 377L642.972 378L643 380L643 381L643 386L643 400L642 401L639.944 401.083L638 401.389L636 401.861L635 402.139L634 402.389L632 403L630.028 403.694L629.083 404.111L627.5 405.306L626.5 407.028L626.083 409L626.028 410L626.028 412L626.083 413L626.444 414.944L627.028 416.5L628 418L630.056 418L631.056 417.972L632 417.917L634 417.611L636 417.139L637 416.861L639 416.389L640 416.194L642 415.806L644 415.389L646 415.083L648 414.917L650 414.611L651 414.389L653 414.083L654 414.028L656 413.917L658 413.611L659 413.389L661 413.083L663 413L665 413L666 413L668 412.889L668.972 412.667L669.917 412.278L670.75 411.667L672.056 409.972L672.5 409L672.917 407L673 405L672.889 403L672.667 402.028L672.278 401.083L671.667 400.25L669.972 398.944L669 398.5L667 398.083L665 398L663 398L661 398.083L659 398.389L658.056 398.611L657.056 398.778L656.5 398.917L655 399L655 382L655 376L655 375L654.972 373L654.917 372L654.611 370L654.389 369L654.083 367L654.028 366L654 364L654 363.056L654 360L655.5 360L657.056 360.083L659 360.389L660 360.611L662 360.917L664 360.889L664.972 360.667L665.889 360.278L667.306 358.889L668.111 357L668.361 356L668.611 355L668.917 353L668.889 351L668.667 350L667.667 348.111L665.972 346.722L664 346.111L663 346.028L661 345.917L660 345.778L658 345.389L657 345.222L656 345.083L654 345L652 345L648 345L646 345L645 345L643 345.028L642 345.083L640 345.389L639 345.611L637 345.917L636 345.972L635 346L634 346L632 346.083L630 346.5L629.028 346.944L628.111 347.5L626.722 349.083L626.111 351L626 353L626 354L626.083 356L626.444 357.944L627.028 359.5L628 361M333 362L333 365.056L333 366L332.972 368L332.889 369L332.389 371L331.528 373L331.056 374L330.167 376L329.722 377L328.556 379L327.139 381L326.361 381.972L325.611 382.917L323.917 384.611L322 386.139L321 386.861L320 387.611L319 388.306L317 389.611L316 390.167L315 390.722L314 391.167L313 391.611L311 392.306L310 392.583L309 392.806L307 393.194L305 393.611L303 393.917L302 393.972L300 393.917L298 393.611L297 393.361L295 392.833L294 392.556L293 392.139L292 391.722L291 391.139L290 390.556L288.083 389.139L287.222 388.389L285.694 387L284.333 385.583L283.667 384.778L282.389 382.972L281.25 381L280.778 380L280.25 379L279.389 377L278.611 375L277.833 373L277.444 372L277.167 371L276.861 370L276.389 368L276.222 367.056L276.028 365.5L276 364L281 364L283 364L284 364.028L285 364.083L287 364.389L289 364.778L290 364.917L292 365L294 365L297 365L299 365L300 364.972L301 364.917L303 364.611L304.944 364.222L306.5 364.028L308 364L308 366.056L308.028 367.056L308.083 368L308.417 370L308.722 371L309.111 372L310.306 373.972L312.028 375.583L313 376.028L313.972 376.167L314.917 375.944L315.75 375.472L316.5 374.75L317.5 372.972L317.722 372L317.806 371L317.389 369L316.611 367.056L316.111 365.5L316 364L317.5 363.917L318.056 363.778L319.056 363.611L320 363.389L322 363.083L323 363.028L325 362.972L326 362.917L328 362.611L329.944 362.222L331.5 362.028L333 362M215 393L213.778 393.778L213.444 394.306L212.861 395.111L212.028 396.944L211.667 397.944L211.444 398.5L211 400L209.5 399.972L207.944 399.75L207 399.528L206 399.167L204 398.472L202 398.111L200.056 398.222L199.056 398.417L197 399L197.028 400.5L197.333 402.056L197.722 402.972L199.111 404.75L200.028 405.528L202 406.722L203 407.139L204 407.528L205 407.75L206 407.917L208 408L210 407.972L211 407.917L212.944 407.583L215 407L213.528 409.028L212.722 409.917L211.917 410.583L210.972 411.056L210 411.278L208 411.222L206.028 411.361L205.111 411.722L203.75 413.111L203.417 415L203.639 415.944L204.333 417.5L205 419L206.5 419.083L207.056 419.222L208.056 419.389L209 419.611L211 419.917L213 419.889L214 419.694L216 418.889L217.917 417.583L218.75 416.778L219.528 415.917L220.722 414L221.167 413L221.972 411L222.583 409L222.806 408L223.194 406L223.389 405L223.611 404L223.917 402L223.972 401L224 399L224 397L224 395L223.917 393L223.528 391L222.722 389L222.139 388.028L221.528 387.111L219.917 385.722L218.972 385.361L218 385.222L217.028 385.361L216.111 385.722L215.333 386.333L214.361 388.028L214.25 389.944L214.417 390.944L215 393M595 484L595 488L595 497L595 604L593.5 604.444L592.944 604.667L591 605.389L590 605.806L589 606.194L587 607.056L586 607.528L584 608.472L583 608.917L582 609.306L580 610.028L578 610.806L577 611.167L576.056 611.528L574.5 611.917L573 612L573 484L595 484M270 512L270.778 513.167L271.306 513.417L272.111 513.972L273.028 514.389L275 515.472L275.972 516.167L276.917 516.861L278.5 518.333L279.472 519.583L280 521L277.944 521L276.944 520.972L276 520.917L274 520.611L273 520.389L271 520.083L270 520.028L268 520L267 520L265 520L264 520L262 519.972L261 519.917L259 519.611L258 519.389L256 519.083L255 519.028L253 519L252 519L249 519L238 519L231 519L229 519L228 519.028L227 519.083L225 519.389L224 519.611L222 519.917L221 519.972L219 520L217 520.028L216 520.083L214 520.389L212 520.778L211 520.917L209 521.083L208 521.222L206 521.611L204 521.917L202 522.028L201 522.083L199 522.389L198 522.611L196 522.944L194 523.222L193 523.389L191 523.778L190 523.917L188 524.083L186 524.389L184 524.806L182 525.194L181 525.389L179 525.861L178 526.139L176 526.611L175 526.806L173 527.194L172 527.389L171 527.611L170 527.806L168 528.194L167 528.389L166 528.611L164 529L162 529.417L160 530L159 530.333L157 531L155.056 531.583L154.5 531.75L153 532L153.778 530.778L154.306 530.417L155.111 529.806L157 528.778L158 528.25L160 527.389L162 526.611L164 525.806L165 525.389L167 524.667L168 524.333L170 523.611L171 523.194L173 522.389L175 521.667L176 521.333L178 520.611L180 519.833L181 519.444L183 518.861L184 518.639L185 518.361L186 518.139L188 517.611L189 517.306L191 516.694L192 516.417L194 516.056L195 515.944L197 515.611L199 515.139L200 514.861L202 514.361L204 513.861L205 513.639L206 513.361L207 513.139L209 512.639L210 512.389L212 512.056L213 511.944L215 511.611L216 511.389L218 511.056L219 510.944L221 510.611L222 510.389L224 510.083L225 510.028L227 510L228 509.972L229 509.917L231 509.611L232 509.389L234 509.083L235 509.028L237 509L238 509L241 509L247 509L248 509L250 509.028L251 509.083L253 509.389L254 509.611L256 509.917L257 509.972L259 510.083L261 510.389L262 510.639L263 510.861L264 511.139L266 511.611L266.944 511.778L268.5 511.972L270 512M328 555L326.5 555.083L325.944 555.222L324.944 555.417L323 556L321.028 556.694L320.083 557.083L318.389 558.083L316.778 559.417L315.917 560.222L314.972 561.083L314 562.028L312.028 564L310.25 566L309.472 567L308.25 569L307.778 570L307.222 571L306.778 572L305.778 574L305.25 575L304.833 576L304.028 578L303.389 580L302.833 582L302.556 583L301.833 585L301.472 586L301 588L300.611 590L300.389 591L300.083 593L299.917 595L299.778 596L299.389 598L299.083 600L299.028 601L299 603L299 605L299 612L299 620L299 622L299.028 624L299.083 625L299.389 626.944L299.75 628.5L300 630L298.5 629.222L297.944 628.694L296.944 627.889L295 626L293 624.028L292 623.083L290 621.389L289 620.639L288 619.861L287 619.139L286 618.361L285 617.639L283 616.139L282 615.389L281 614.694L279 613.333L277 612.028L276 611.389L274 610.25L273 609.75L271 608.611L269 607.389L267 606.25L266 605.778L265 605.25L264 604.833L263 604.389L261 603.611L260 603.194L259 602.806L258 602.361L257 601.944L255 601L253 600.083L251 599.389L249 598.833L248 598.556L247 598.167L245 597.389L244 597.028L243 596.667L241 596L239 595.389L238 595.139L237 594.861L236 594.639L235 594.361L234 594.139L232 593.639L231 593.361L230 593.139L229 592.861L228 592.639L227 592.361L226 592.139L224 591.611L223 591.306L222 591L220 590.417L218 590L217 589.806L215 589.389L213 589.083L211 588.972L210 588.917L209 588.778L207 588.389L205 588.083L204 588.028L202 587.917L201 587.778L199 587.389L197 587.083L196 587.028L194 587L192 586.972L191 586.917L189 586.611L188 586.389L186 586.083L185 586.028L184 586L182 586L177 586L175 586L174 586L172 585.917L170 585.611L169 585.389L167 585.083L165 585L164 585L162 585.028L161 585.083L159 585.389L158 585.611L156 585.917L155 585.972L153 586L152 586L147 586L145 586L144 586.028L143 586.083L141 586.389L140 586.611L138 586.917L137 586.972L135 587L134 587.028L133 587.083L131 587.389L130 587.611L128 587.917L126 588.028L125 588.083L123 588.389L121 588.778L120 588.917L118 589.083L116 589.389L115 589.611L114 589.806L112 590.194L111 590.389L110 590.611L108 590.944L107 591.056L105 591.472L103 592.167L102 592.528L100 593L98 593.417L97 593.694L95 594.306L94 594.611L92 595.139L91 595.389L90 595.694L88 596.306L87 596.611L85 597.139L84 597.389L82 598.028L81 598.389L80 598.806L78 599.611L76.0556 600.306L74.5 600.75L73 601L73.0833 599.5L73.5 598.028L74.3889 596.389L74.9444 595.611L76 593.917L77.0556 592L78.1944 590L78.8056 589L80.0278 587L80.6667 586L82 584L83.3889 582L84.1389 581L85.6389 579L86.3889 578L88.0833 576L90 574L92 572L94 570L96 568.028L97 567.083L99 565.389L100 564.639L101 563.861L102 563.139L104 561.639L105 560.861L106 560.167L107 559.444L109 558.25L110 557.75L112 556.611L114 555.389L116 554.25L117 553.75L119 552.639L120 552.056L122 551.083L123 550.694L125 549.972L126 549.611L127 549.194L129 548.389L131 547.611L132 547.194L134 546.444L135 546.167L137 545.556L138 545.167L140 544.389L142 543.611L144 542.806L145 542.389L147 541.694L148 541.417L149 541.194L151 540.806L153 540.389L154 540.194L156 539.806L157 539.611L158 539.361L159 539.139L160 538.861L161 538.611L163 538L165 537.333L166 537L168 536.389L169 536.139L170 535.861L171 535.639L172 535.361L173 535.139L175 534.639L176 534.389L178 534.056L179 533.944L181 533.611L182 533.389L184 533.083L186 532.917L187 532.778L189 532.389L190 532.222L192 531.944L194 531.611L195 531.389L197 531.083L198 531.028L200 530.917L202 530.611L204 530.222L205 530.083L207 529.917L208 529.778L210 529.389L212 529.083L213 529.028L214 529L216 529L218 528.972L219 528.917L221 528.611L222 528.389L224 528.083L225 528.028L227 528L228 528L230 528L232 527.972L233 527.917L235 527.611L237 527.222L238 527.083L240 527L242 527L247 527L249 527L251 527.028L252 527.083L254 527.389L256 527.778L257 527.917L259 528L260 528L262 528L263 528L265 528.028L266 528.083L268 528.389L270 528.778L271 528.917L273 529.083L275 529.389L276 529.611L277 529.806L279 530.194L280 530.389L281 530.611L283 530.917L285 531.083L287 531.417L288 531.694L290 532.333L292 533L293 533.306L295 533.889L296 534.222L297 534.583L299 535.417L301 536.139L302 536.444L303 536.861L304 537.25L305 537.778L307 538.778L308 539.222L309 539.778L310 540.222L311 540.778L313 541.833L314 542.389L316 543.667L318 545L319 545.694L320 546.389L321 547.139L323 548.639L324 549.361L325.889 550.861L327.278 552.333L327.889 553.583L328 555M419 626L419 628L417.75 629.5L416.556 631.056L414.917 633L413.972 634L412.083 636L410.389 637.972L409.611 638.917L408.778 639.778L406.972 641.389L405 643.056L404 643.944L402.083 645.611L400.389 647.222L398.778 649L397.917 649.889L396 651.278L394 651.917L393 652.056L392 652.222L391.056 652.389L389.5 652.75L388 653L388.083 655.056L388.417 656.944L389 659L387.028 661.056L386.167 662.056L385.389 663L383.806 665L382.194 667L381.389 668L379.861 670L379.139 671L378.361 672L377.639 673L376.861 674L375.389 676L374.694 677L373.306 679L372.611 680L371.861 681L370.389 683L369.694 684L369 685L367.667 687L367 688L366.306 689L365.639 689.944L364.417 691.5L363 693L361 693L358.944 691.028L357 689.389L355 687.806L353 686.194L352 685.389L351 684.639L350 683.861L349 683.139L347 681.694L345 680.306L344 679.583L342 677.944L341 677.056L339 675.389L338 674.611L337 673.806L335 672.194L334 671.389L332 669.778L331 668.917L330 667.972L329 667L327 665.083L325.083 663.389L324.222 662.611L323.389 661.778L321.778 659.972L320.944 659L320.056 658L318.389 656L317.639 655L316.861 654L315.444 652L314.861 651L314.25 650L313.778 649L312.778 647L312.25 646L311.444 644L311.167 643L310.611 641L310 639L309.417 637L309 635L308.611 633L308.389 632L308.194 631L307.806 629L307.611 628L307.389 627L307.083 625L307.028 624L307 622L307 620L307 613L307 605L307 603L307 602L307.083 600L307.389 598L307.611 597L307.944 595L308.056 594L308.417 592L308.694 591L309.306 589L309.583 588L310 586L310.222 585L310.472 584L311.167 582L311.556 581L311.861 580L312.583 578L313.5 576L314 575L315.083 573L315.722 572L317.194 570L318.806 568.083L319.611 567.25L320.389 566.472L322.083 565.25L323.028 564.778L324 564.25L326 563.444L327 563.167L329 562.639L330 562.389L332 562.083L334 562.083L336 562.389L338 562.778L340 563.056L342 563.5L343 563.917L344 564.417L346 565.694L348 567.139L349 567.861L350 568.611L351 569.306L353 570.694L354 571.389L356 572.861L357 573.639L358 574.361L360 575.861L361 576.639L362 577.361L364 578.861L365 579.639L366 580.361L367 581.139L368 581.861L370 583.389L371 584.194L373 585.806L374 586.611L376 588.139L377 588.861L378 589.639L379 590.389L380 591.194L382 592.806L384 594.389L386 596L388 597.611L390 599.222L391 600.083L393 601.972L394 602.917L396 604.611L397 605.389L399 607.083L400 608.028L402 609.917L404 611.611L405 612.389L407 614.083L408 615.028L410 617L412 619L419 626M605 593L604.75 595L604.722 595.556L604 597L603.278 596.222L603.25 595.75L603.056 594.944L603 593L605 593M617 599L616.75 600.5L616.583 601.056L616.278 602.056L615.361 604L614.694 605L613.889 605.972L612 607.778L611 608.583L610 609.306L608 610.583L606.056 611.5L604.5 611.917L603 612L603.028 610.5L603.333 608.972L603.722 608.083L605.111 606.389L607 604.778L607.972 603.917L608.917 602.972L610.528 601.056L612 599L617 599M565 600L565 612L564.028 611.222L563.861 610.694L563.444 609.889L563.083 608L563 606L563.083 604L563.444 602.111L563.861 601.306L564.028 600.778L565 600M595 613L594.278 613.722L593.75 613.75L592 614L592.722 613.278L593.25 613.25L595 613M595 622L595 629L593.5 628.972L591.944 628.778L591 628.583L589 628L588 627.667L586 626.917L584 625.944L583 625.417L581 624.722L580.056 624.639L579.056 624.694L577 625L577 631L578.5 631.5L579.056 631.833L580.056 632.25L581 632.778L583 633.75L584 634.167L585 634.611L586 634.972L588 635.667L589 636L591 636.583L591.944 636.778L593.5 636.972L595 637L595 645L592.944 644.917L591 644.583L590 644.306L588 643.583L586 642.5L584 640.917L583 639.972L582 639L580 637.139L579 636.417L578 635.972L576.111 636L575.306 636.472L574 638L573.278 637.222L573.25 636.694L573.056 635.889L573.028 634.972L573 634L573 632L573 630L573 625L574.5 624L575.056 623.778L576.056 623.222L578 622.472L580 622.083L582 622L583 622L585 622L595 622M574 640L574.694 641.5L575.083 642.056L576.417 643.917L578.083 645.611L579.028 646.389L581 648L583 649.528L584 650.139L585 650.722L586 651.139L588 651.833L590 652.361L591 652.611L592.944 652.917L593.5 652.972L595 653L595 655.056L595 660L595 765L593.5 765.028L591.944 765.222L590 765.611L588 765.917L587 765.972L585 766L583 765.917L581 765.583L580 765.306L578 764.694L577.056 764.417L575.5 764.083L574 764L573 763L573 675L573 651L573 647L573 645L573.028 643.028L573.056 642.111L573.25 641.306L573.278 640.778L574 640M83 795L84.5 795.028L86.0556 795.222L88 795.611L90 795.917L91 795.972L93 796L94 796L96 796L98 796.028L99 796.083L101 796.389L103 796.778L104 796.917L106 797L107 797L110 797L112 797L113 796.972L114 796.917L116 796.611L117 796.389L119 796.083L120 796.028L122 796L122.944 796L126 796L126 800L134 800L134 796L135.5 795.75L137.056 795.389L139 795.083L140 795.028L141 795L143 795L149 795L150 795L152 794.972L153 794.917L155 794.611L156 794.389L158 794.083L159 794.028L161 794L162 794L166 794L178 794L179 793L179.083 791.5L179.222 790.944L179.389 789.944L179.778 788L179.917 787L180.083 785L180.222 784L180.611 782L180.917 780L181.028 778L181.083 777L181.389 775L181.611 774L181.917 772L181.972 771L182.083 769L182.389 767L182.611 766L182.917 764L182.972 763L183 761L183.028 759L183.083 758L183.389 756L183.611 755L183.917 753L183.972 752L184 751L184 749L184 747L184.083 745L184.222 744L184.611 742L184.778 741L184.917 740L185 738L184.889 736L184.667 735.028L183.667 733.333L181.972 732.333L181.056 732.111L179.5 732L178 732L177 733L177 735.056L176.972 737L176.917 738L176.611 740L176.389 741L176.083 743L176.028 744L176 745L176 746L176 748L175.972 750L175.917 751L175.611 753L175.389 754L175.083 756L175.028 757L175 758L175 760L174.972 762L174.917 763L174.611 765L174.222 767L174.083 768L173.917 770L173.778 771L173.389 773L173.083 775L173.028 776L172.972 778L172.917 779L172.611 781L172.389 782L172.083 783.944L172.028 784.944L172 787L150 787L143 787L141 787L139 787.028L138 787.083L136 787.389L135 787.611L133 787.917L132 787.972L130 788L128 788L122 788L120 788L119 788.028L118 788.083L116 788.389L114 788.778L113 788.917L111 789L110 789L108 788.972L107 788.917L105 788.611L104 788.389L102 788.083L101 788.028L99 788L97 788L90 788L89 787L89 783.944L89 783L88.9722 781L88.9167 780L88.6111 778L88.2222 776L88.0833 775L88 773L88 772L88 769L88 760L88 754L88 752L88.0278 750L88.0833 749L88.3889 747L88.7778 745.056L88.9722 743.5L89 742L90.5 742.25L92.0556 742.611L94 742.917L95 742.972L97 743L98 743L100 743L101 743L103 743.028L104 743.083L106 743.389L107 743.611L109 743.917L110 743.972L111 744L113 744L120 744L128 744L131 744L133 743.972L134 743.917L136 743.611L137 743.389L139 743.083L141 743L143 743L146 743L147 743L149 742.972L150 742.917L152 742.611L154 742.222L155 742.083L157 741.972L158 741.917L160 741.611L162 741.222L163 741.083L165 740.917L166 740.778L167 740.611L169 740.139L170 739.833L170.944 739.583L171.944 739.139L172.5 738.972L174 738L173.917 735.944L173.583 734.056L173 732L170.944 732L169.944 732L169 732L167 732.083L166 732.222L165 732.417L163 733L161 733.583L159 733.917L158 733.972L156 734.028L155 734.083L153 734.389L152 734.611L150 734.917L149 734.972L147 735L146 735L143 735L141 735L139 735.028L138 735.083L136 735.389L135 735.611L133 735.917L132 735.972L131 736L129 736L122 736L115 736L113 736L112 735.972L111 735.917L109 735.611L108 735.389L106 735.083L104 735L102 735L101 735L99 734.972L98 734.917L96 734.611L95 734.389L93 734.083L92 734.028L90 734L88 734L86 734.028L84.0278 734.333L83.1111 734.722L82.3333 735.333L81.7222 736.111L81.3333 737.028L81.1111 738L81 740L81 742L81 747L81 749L80.9167 751L80.7778 752L80.3889 754L80.0833 756L80.0278 757L80 758L80 760L80 763L80 764L80.0833 766L80.2222 767L80.6111 769L80.9167 771L80.9722 772L81 774L81 775L81 778L81 783L81 785L81 786L81 788L81.0833 790L81.4444 791.944L82.0278 793.5L83 795z"/>
</svg>
